<?xml version="1.0" standalone="no"?>
<!DOCTYPE svg PUBLIC "-//W3C//DTD SVG 20010904//EN"
 "http://www.w3.org/TR/2001/REC-SVG-20010904/DTD/svg10.dtd">
<svg version="1.0" xmlns="http://www.w3.org/2000/svg"
 width="600.000000pt" height="600.000000pt" viewBox="0 0 600.000000 600.000000"
 preserveAspectRatio="xMidYMid meet">
<metadata>
Created by potrace 1.10, written by Peter Selinger 2001-2011
</metadata>
<g transform="translate(0.000000,600.000000) scale(0.100000,-0.100000)"
fill="#6373a4" stroke="none">
<path d="M1661 5010 c-46 -10 -88 -23 -94 -29 -6 -6 -18 -11 -27 -11 -42 0
-185 -94 -266 -174 -109 -110 -186 -254 -213 -402 -16 -85 -16 -2543 0 -2628
17 -94 57 -191 115 -283 68 -107 215 -232 324 -277 25 -10 54 -23 64 -28 11
-6 60 -19 109 -29 85 -18 155 -19 1326 -19 1067 0 1245 2 1294 15 32 8 67 15
78 15 12 0 33 6 47 13 15 8 45 22 67 32 22 9 47 21 55 26 8 5 24 13 35 18 23
10 118 90 155 130 55 59 96 120 131 191 35 72 38 81 59 160 19 73 20 113 20
1350 0 1237 -1 1277 -20 1350 -21 79 -24 88 -59 160 -27 56 -39 75 -76 125
-64 85 -192 196 -255 221 -26 10 -84 36 -112 51 -14 7 -35 13 -47 13 -11 0
-46 7 -78 15 -49 13 -225 15 -1303 14 -1163 -1 -1250 -2 -1329 -19z m2534
-130 c-8 -13 -2405 -14 -2405 0 0 7 400 10 1206 10 778 0 1203 -3 1199 -10z
m-2470 -30 c-7 -11 -95 -9 -95 2 0 4 23 8 51 8 30 0 48 -4 44 -10z m2635 0 c0
-7 -14 -8 -37 -4 -52 9 -54 14 -5 14 23 0 42 -5 42 -10z m-2755 -30 c-3 -5
-12 -10 -20 -10 -7 0 -16 -6 -18 -12 -3 -7 -6 -3 -6 10 -1 17 4 22 25 22 14 0
23 -4 19 -10z m2825 1 c0 -18 -17 -20 -36 -6 -18 14 -18 14 9 15 15 0 27 -4
27 -9z m107 -67 c-9 -9 -28 6 -21 18 4 6 10 6 17 -1 6 -6 8 -13 4 -17z m-502
6 c4 -7 -359 -9 -1097 -8 -607 1 -1078 4 -1048 8 94 11 2138 11 2145 0z
m-2318 -66 c-3 -3 -16 -4 -29 -2 l-23 5 25 10 c23 10 41 1 27 -13z m-337 -25
c0 -5 -6 -9 -14 -9 -8 0 -17 -7 -20 -16 -3 -8 -11 -12 -16 -9 -7 4 -2 16 12
30 22 22 38 24 38 4z m2655 -29 c-3 -5 -26 -10 -51 -10 -28 0 -43 -4 -39 -10
3 -5 1 -10 -4 -10 -6 0 -11 5 -11 10 0 7 -337 10 -990 10 -653 0 -990 3 -990
10 0 7 355 10 1046 10 694 0 1043 -3 1039 -10z m-2077 -40 c4 -13 3 -13 -11
-2 -9 8 -36 12 -66 11 -28 -2 -54 1 -58 5 -4 4 24 6 62 4 50 -2 70 -7 73 -18z
m-188 -19 c0 -8 -60 -41 -75 -41 -4 0 -14 -8 -21 -17 -7 -10 -16 -15 -20 -10
-11 11 32 47 56 47 11 0 23 7 26 15 7 16 34 21 34 6z m-517 -101 c-7 -28 -13
-25 -13 6 0 14 4 23 9 20 5 -3 7 -15 4 -26z m3517 -47 c-1 -24 -2 -26 -11 -10
-5 9 -7 22 -4 27 10 17 15 11 15 -17z m-3359 -16 c-13 -13 -26 -3 -16 12 3 6
11 8 17 5 6 -4 6 -10 -1 -17z m-187 -38 c-4 -60 -14 -61 -14 0 0 29 4 50 9 47
4 -3 7 -24 5 -47z m152 -26 c-11 -11 -17 4 -9 23 7 18 8 18 11 1 2 -10 1 -21
-2 -24z m3424 -1275 c0 -694 -2 -1259 -5 -1256 -6 6 -13 2507 -6 2513 2 3 6 5
8 5 2 0 3 -568 3 -1262z m-3454 1184 c-12 -12 -18 8 -10 35 l8 28 4 -28 c2
-16 1 -31 -2 -35z m123 -45 c-1 -18 -5 -43 -9 -57 -6 -19 -8 -9 -9 38 -1 40 3
61 9 57 6 -3 10 -21 9 -38z m-152 -1704 c-1 -312 -2 -59 -2 562 0 622 1 877 2
568 2 -309 2 -817 0 -1130z m2128 1587 c4 -7 -80 -10 -247 -9 -142 1 -242 4
-228 9 37 12 468 12 475 0z m-525 -30 c0 -5 -12 -10 -27 -10 -22 0 -25 2 -13
10 20 13 40 13 40 0z m460 -70 c1 -5 1 -68 1 -140 0 -71 0 -134 -1 -140 0 -6
-51 -10 -131 -10 -115 0 -136 -3 -164 -20 -55 -34 -67 -74 -63 -205 1 -62 7
-117 11 -122 5 -4 79 -10 165 -13 l157 -5 -4 -100 c-2 -55 -7 -108 -13 -117
-7 -15 -24 -18 -116 -18 -59 0 -114 -5 -122 -10 -13 -8 -15 -73 -17 -472 -2
-255 -3 -466 -3 -471 0 -4 -80 -6 -177 -5 l-178 3 -5 475 -5 475 -85 5 -85 5
0 115 0 115 85 5 85 5 6 190 c7 229 20 282 94 363 31 34 79 61 155 86 54 18
410 23 410 6z m1255 -140 c4 -6 -7 -10 -27 -10 -25 0 -29 3 -18 10 19 13 37
13 45 0z m-1969 -47 c-11 -11 -19 6 -11 24 8 17 8 17 12 0 3 -10 2 -21 -1 -24z
m1893 -70 l-2 -88 -8 75 c-5 41 -6 81 -4 88 11 30 15 6 14 -75z m-1916 -313
c0 -3 -39 -3 -85 -1 -91 4 -84 19 10 20 l52 1 1 38 c1 20 2 80 3 132 4 161 10
153 16 -20 3 -91 4 -167 3 -170z m792 190 c-4 -6 -62 -10 -140 -10 -78 0 -136
-4 -140 -10 -10 -17 -25 -11 -25 10 0 19 7 20 156 20 101 0 153 -3 149 -10z
m1215 0 c0 -5 -16 -10 -35 -10 -19 0 -35 5 -35 10 0 6 16 10 35 10 19 0 35 -4
35 -10z m-92 -187 l-1 -138 -6 115 c-6 107 -4 160 5 160 2 0 3 -62 2 -137z
m-1138 7 c10 -6 -39 -10 -148 -10 -106 0 -161 3 -157 10 8 13 285 13 305 0z
m-961 -212 c0 -121 -4 -173 -9 -154 -16 51 -10 336 6 336 2 0 4 -82 3 -182z
m2181 32 c0 -5 -13 -10 -30 -10 -16 0 -30 5 -30 10 0 6 14 10 30 10 17 0 30
-4 30 -10z m-1193 -96 c-5 -104 -17 -105 -17 0 0 58 3 85 10 81 7 -4 9 -36 7
-81z m1113 -551 c0 -339 -3 -613 -7 -608 -9 11 -6 1225 2 1225 3 0 5 -278 5
-617z m-1918 -48 c-1 -290 -6 -464 -12 -460 -6 3 -9 169 -9 418 0 227 0 429
-1 450 l0 37 -47 0 c-91 0 -104 15 -18 20 44 3 82 4 85 3 3 0 4 -211 2 -468z
m733 455 c-3 -6 -48 -10 -100 -10 -52 0 -97 4 -100 10 -4 6 32 10 100 10 68 0
104 -4 100 -10z m-240 -960 c-8 -13 -445 -13 -465 0 -10 6 67 10 228 10 160 0
241 -3 237 -10z m1536 -100 l-9 -55 -1 65 c-1 39 3 60 8 55 6 -6 6 -33 2 -65z
m-3202 -32 c1 -10 -3 -18 -9 -18 -6 0 -9 25 -9 58 1 56 1 57 10 17 4 -22 8
-48 8 -57z m3059 8 c2 -35 0 -46 -9 -41 -7 5 -9 21 -6 40 3 18 0 38 -6 45 -9
10 -9 11 3 8 10 -3 16 -21 18 -52z m-3178 -68 c0 -25 -3 -29 -10 -18 -13 20
-13 50 0 50 6 0 10 -15 10 -32z m3300 -13 c0 -8 6 -15 13 -15 8 0 7 -4 -3 -10
-23 -15 -30 -12 -30 15 0 14 5 25 10 25 6 0 10 -7 10 -15z m-3420 -92 c0 -12
-4 -25 -10 -28 -6 -4 -10 11 -10 37 0 31 3 39 10 28 5 -8 10 -25 10 -37z m150
25 c0 -19 -2 -20 -10 -8 -13 19 -13 30 0 30 6 0 10 -10 10 -22z m3088 -1 c5
-24 -15 -21 -21 4 -3 13 -1 19 6 16 7 -2 13 -11 15 -20z m-30 -36 c4 -28 -13
-20 -21 9 -3 14 -1 20 6 17 7 -2 14 -14 15 -26z m332 -13 c0 -28 -3 -39 -10
-32 -9 9 -3 74 6 74 2 0 4 -19 4 -42z m-188 -30 c-9 -9 -12 -7 -12 12 0 19 3
21 12 12 9 -9 9 -15 0 -24z m-3329 -28 c3 -11 1 -23 -4 -26 -5 -3 -9 6 -9 20
0 31 6 34 13 6z m412 -30 c11 -12 13 -20 6 -20 -6 0 -21 9 -33 20 -17 15 -18
20 -6 20 8 0 23 -9 33 -20z m2666 -13 c-13 -13 -26 -3 -16 12 3 6 11 8 17 5 6
-4 6 -10 -1 -17z m-2802 -62 c-12 -11 -39 19 -39 43 0 10 8 7 24 -9 17 -16 22
-27 15 -34z m2771 37 c0 -13 -12 -22 -22 -16 -10 6 -1 24 13 24 5 0 9 -4 9 -8z
m-2500 -27 c-14 -17 -60 -20 -60 -4 0 7 10 9 24 5 14 -3 28 -2 31 4 3 5 9 10
12 10 3 0 0 -7 -7 -15z m2440 -5 c0 -5 -12 -10 -27 -10 -22 0 -25 2 -13 10 20
13 40 13 40 0z m-2365 -30 c4 -6 -7 -10 -27 -10 -25 0 -29 3 -18 10 19 13 37
13 45 0z m2300 0 c4 -6 -10 -9 -37 -9 l-43 2 35 7 c19 4 36 8 37 9 1 0 5 -3 8
-9z m-145 -30 c0 -7 -353 -10 -1040 -10 -687 0 -1040 3 -1040 10 0 7 353 10
1040 10 687 0 1040 -3 1040 -10z m-2310 -60 c0 -5 -9 -10 -20 -10 -11 0 -20 5
-20 10 0 6 9 10 20 10 11 0 20 -4 20 -10z m2585 0 c-3 -5 -13 -10 -21 -10 -8
0 -14 5 -14 10 0 6 9 10 21 10 11 0 17 -4 14 -10z m-127 -69 c3 -8 0 -11 -7
-7 -6 4 -521 7 -1144 7 -656 -1 -1145 3 -1162 8 -18 6 422 9 1139 8 988 -2
1170 -4 1174 -16z m362 11 c0 -13 -12 -22 -22 -16 -10 6 -1 24 13 24 5 0 9 -4
9 -8z m-3005 -32 c3 -5 -3 -10 -15 -10 -12 0 -18 5 -15 10 3 6 10 10 15 10 5
0 12 -4 15 -10z m175 -66 c0 -2 -19 -3 -42 -3 -39 1 -41 2 -13 8 28 7 55 4 55
-5z m2650 6 c0 -5 -19 -10 -42 -10 -32 0 -39 3 -28 10 20 13 70 13 70 0z
m-160 -29 c0 -8 -358 -11 -1201 -11 -660 0 -1198 4 -1195 8 8 13 2396 15 2396
3z"/>
</g>
</svg>
