<?xml version="1.0" standalone="no"?>
<!DOCTYPE svg PUBLIC "-//W3C//DTD SVG 20010904//EN"
 "http://www.w3.org/TR/2001/REC-SVG-20010904/DTD/svg10.dtd">
<svg version="1.0" xmlns="http://www.w3.org/2000/svg"
 width="920.000000pt" height="703.000000pt" viewBox="0 0 920.000000 703.000000"
 preserveAspectRatio="xMidYMid meet">

<g transform="translate(0.000000,703.000000) scale(0.100000,-0.100000)"
fill="#000000" stroke="none">
<path d="M5226 6573 c-8 -8 -148 -17 -431 -28 -88 -4 -167 -9 -175 -12 -21 -7
-144 -8 -156 -1 -5 3 -43 3 -84 1 -41 -2 -156 -5 -255 -7 -344 -5 -415 -8
-415 -14 0 -4 -20 -7 -45 -7 -25 0 -45 3 -45 7 0 4 -26 4 -57 2 -32 -3 -112
-9 -178 -14 -66 -5 -135 -11 -153 -15 -20 -5 -38 -3 -47 5 -10 9 -15 9 -15 1
0 -6 -8 -11 -17 -11 -16 0 -16 2 -3 11 12 8 9 9 -10 4 -14 -3 -87 -9 -162 -12
-76 -3 -138 -9 -138 -13 0 -8 -56 -17 -167 -27 -43 -4 -67 -11 -79 -24 -18
-20 -44 -25 -44 -9 0 11 -185 8 -197 -3 -3 -4 -18 -7 -32 -6 -24 0 -24 1 -6 9
15 6 5 9 -36 9 -30 1 -59 -3 -65 -7 -5 -5 -34 -14 -64 -21 -31 -6 -69 -20 -85
-31 -17 -11 -39 -25 -49 -32 -28 -19 -56 -47 -56 -56 0 -5 -14 -21 -30 -37
-16 -16 -30 -33 -30 -38 0 -4 -14 -28 -30 -52 -17 -24 -30 -48 -30 -54 0 -6
-4 -11 -10 -11 -5 0 -10 -11 -10 -25 0 -14 -4 -25 -10 -25 -5 0 -10 -13 -10
-30 0 -16 -4 -30 -10 -30 -5 0 -10 -24 -10 -54 0 -30 -4 -57 -9 -60 -4 -3 -11
-41 -15 -83 -3 -43 -11 -112 -16 -153 -19 -160 -23 -251 -12 -273 13 -26 17
-55 38 -292 8 -99 20 -182 25 -184 30 -10 50 -47 45 -81 -3 -19 1 -71 9 -115
8 -44 15 -106 15 -137 0 -31 5 -60 10 -63 6 -4 10 -80 10 -195 0 -115 4 -191
10 -195 7 -4 9 -159 6 -447 -4 -414 2 -611 25 -788 5 -41 12 -133 15 -205 5
-122 5 -131 -15 -152 -25 -27 -26 -39 -5 -60 11 -11 14 -26 10 -47 -4 -22 -3
-27 4 -16 7 12 10 8 10 -15 0 -21 -3 -26 -9 -16 -15 24 -23 -58 -50 -489 -5
-91 -13 -203 -17 -249 -4 -50 -2 -136 6 -215 13 -136 15 -140 90 -271 13 -22
42 -60 64 -83 46 -50 178 -152 195 -152 6 0 11 -4 11 -10 0 -5 11 -10 25 -10
14 0 25 -4 25 -10 0 -5 14 -10 30 -10 17 0 30 -4 30 -10 0 -5 9 -10 19 -10 10
0 38 -9 62 -20 33 -15 66 -20 131 -20 48 0 90 -4 93 -10 3 -5 48 -10 99 -10
50 0 96 -4 102 -9 19 -19 615 -39 690 -23 29 6 83 5 166 -5 164 -18 289 -33
313 -38 11 -2 101 -4 200 -5 118 -1 173 -5 160 -11 -12 -5 134 -6 380 -2 220
3 481 4 580 2 415 -8 1312 -2 1385 9 41 6 94 14 118 18 23 3 45 10 48 15 3 5
15 9 27 9 12 0 40 7 62 16 22 8 48 17 58 21 9 3 17 8 17 12 0 3 14 12 31 20
36 16 199 169 199 187 0 6 9 19 20 29 11 10 20 29 20 42 0 12 3 23 8 23 12 0
34 59 61 166 6 23 11 78 11 123 0 52 4 80 10 76 6 -4 10 29 10 92 0 146 21
477 31 488 5 5 9 112 9 238 0 133 4 226 9 223 5 -3 12 35 15 87 3 50 10 146
16 212 6 66 14 201 19 300 5 99 15 243 23 320 23 246 13 1545 -13 1529 -8 -4
-15 319 -12 506 1 53 1 53 -6 15 -6 -29 -9 -2 -11 95 -1 74 -2 139 -1 144 1 5
-2 12 -6 15 -10 7 -33 115 -33 154 0 15 -4 27 -10 27 -5 0 -10 18 -10 40 0 22
-4 40 -10 40 -5 0 -10 9 -10 21 0 24 -79 179 -92 179 -4 0 -8 6 -8 13 0 7 -24
39 -53 70 -39 42 -60 57 -79 57 -15 0 -30 5 -33 10 -4 6 -10 8 -14 6 -4 -3
-23 10 -41 29 -19 19 -39 35 -45 35 -7 0 -20 9 -30 20 -10 11 -26 20 -37 20
-10 0 -18 4 -18 8 0 5 -34 9 -75 10 -41 1 -86 7 -100 12 -15 6 -56 10 -91 10
-41 0 -63 4 -59 10 4 6 -28 10 -89 10 -54 0 -98 -4 -101 -10 -4 -7 -19 -3 -39
10 -29 17 -51 20 -167 21 -79 1 -124 4 -109 9 16 5 -12 8 -75 8 -59 1 -101 6
-103 12 -2 5 -24 10 -48 10 -24 0 -44 5 -44 10 0 6 -63 10 -169 10 -103 0
-172 4 -176 10 -7 12 -288 14 -299 3z m-488 -130 c-15 -2 -42 -2 -60 0 -18 2
-6 4 27 4 33 0 48 -2 33 -4z m-1605 -50 c-7 -2 -21 -2 -30 0 -10 3 -4 5 12 5
17 0 24 -2 18 -5z m-738 -43 c-3 -5 -20 -10 -36 -10 -18 0 -28 4 -24 10 3 6
20 10 36 10 18 0 28 -4 24 -10z m162 -26 c-3 -3 -12 -4 -19 -1 -8 3 -5 6 6 6
11 1 17 -2 13 -5z m3783 -154 c183 -21 268 -50 350 -118 l32 -27 9 -235 c6
-158 6 -270 -1 -340 -6 -58 -11 -123 -13 -145 -2 -34 -5 -39 -22 -37 -59 10
-361 11 -430 1 -180 -25 -306 -94 -321 -177 -4 -21 -13 -55 -21 -77 -27 -74
-52 -363 -39 -455 2 -19 5 -38 5 -42 1 -10 89 -36 146 -43 106 -14 539 -17
608 -5 38 7 70 10 73 8 2 -3 -3 -21 -11 -41 -8 -21 -13 -37 -10 -37 3 0 -2
-17 -10 -37 -8 -21 -23 -72 -34 -113 -11 -41 -30 -109 -41 -150 -38 -139 -69
-255 -92 -344 -17 -66 -28 -91 -43 -97 -11 -5 -72 -13 -135 -19 -63 -5 -174
-15 -246 -22 -120 -11 -134 -10 -158 6 -15 9 -30 15 -35 12 -13 -9 -20 -180
-25 -616 -3 -223 -5 -410 -5 -416 -1 -6 -18 -23 -38 -36 -111 -74 -240 -213
-292 -317 -41 -79 -55 -354 -26 -479 14 -58 26 -92 73 -207 34 -81 174 -257
228 -286 24 -13 26 -17 20 -64 -3 -27 -10 -129 -15 -225 -9 -162 -8 -178 9
-212 18 -34 18 -39 3 -53 -10 -10 -22 -13 -32 -8 -19 9 -221 14 -555 13 l-249
-1 8 23 c4 13 9 131 10 263 l4 240 35 6 c122 20 259 140 311 271 25 62 30 90
33 186 2 61 1 124 -2 138 -8 31 -76 106 -124 136 -45 28 -125 27 -181 -2 -22
-11 -42 -16 -45 -12 -3 5 0 51 6 103 16 148 25 293 37 574 6 143 17 314 23
380 17 168 13 557 -7 594 -22 43 -55 59 -136 64 -177 13 -308 25 -318 31 -9 6
-132 15 -204 16 l-29 0 6 143 c3 79 8 161 11 183 4 21 7 136 8 254 l2 214 39
8 c43 9 412 4 511 -7 54 -6 62 -5 80 15 19 21 20 40 26 424 3 237 10 429 17
468 16 93 76 237 118 287 24 27 33 47 30 59 -5 14 12 36 61 83 38 36 84 77
103 91 55 41 199 113 263 131 129 37 164 47 212 58 28 6 64 15 80 19 44 12
257 12 355 0z m253 -1007 c-7 -2 -21 -2 -30 0 -10 3 -4 5 12 5 17 0 24 -2 18
-5z m-3406 -2483 c14 -17 44 -35 66 -41 159 -43 191 -207 80 -416 -63 -119
-100 -156 -207 -207 -52 -24 -97 -50 -101 -56 -9 -15 -153 -1 -185 18 -85 53
-174 151 -206 227 -18 44 -18 136 0 178 20 45 142 171 196 202 92 52 159 82
245 108 72 22 82 20 112 -13z m3183 -60 c0 -5 -4 -10 -10 -10 -5 0 -10 5 -10
10 0 6 5 10 10 10 6 0 10 -4 10 -10z m-2 -89 c22 -11 42 -27 45 -36 4 -8 15
-15 25 -15 23 0 92 -88 114 -145 14 -36 14 -47 0 -105 -36 -152 -107 -287
-188 -361 -45 -40 -151 -102 -239 -138 -44 -18 -89 -39 -100 -47 -29 -21 -43
-18 -141 30 -148 72 -206 160 -212 324 -4 107 5 140 70 236 79 116 186 205
310 256 69 29 78 31 175 26 75 -4 112 -10 141 -25z m-2032 -587 c38 -14 79
-28 92 -31 33 -8 35 -18 13 -60 -28 -55 -41 -138 -48 -300 -3 -79 -8 -143 -10
-143 -7 0 -58 34 -115 77 -59 45 -89 89 -139 208 -59 140 -29 252 71 268 52 9
69 6 136 -19z m928 -31 c3 -10 10 -62 17 -115 8 -72 8 -105 0 -129 -6 -18 -11
-42 -11 -54 0 -40 -68 -163 -117 -211 -48 -47 -121 -86 -180 -97 -40 -8 -40
-15 -7 138 22 105 41 252 47 380 2 32 7 41 27 48 14 4 57 19 95 31 88 30 122
32 129 9z m-620 -64 c49 -10 110 -19 135 -20 25 0 72 -6 103 -12 46 -10 55
-15 48 -27 -5 -8 -10 -47 -10 -86 0 -39 -9 -104 -20 -145 -11 -41 -25 -120
-31 -175 l-12 -102 -60 -13 c-45 -9 -73 -10 -120 -1 -61 11 -246 97 -253 117
-4 11 29 256 45 325 5 25 15 73 23 108 12 60 14 63 38 56 14 -3 65 -15 114
-25z m-1244 -14 c41 -39 70 -96 70 -138 0 -38 -41 -102 -82 -129 -46 -30 -177
-70 -208 -63 -37 8 -125 86 -138 123 -18 53 50 199 108 230 17 8 57 12 122 10
92 -3 98 -4 128 -33z m3140 -211 c57 -6 68 -10 97 -42 52 -57 47 -89 -29 -169
-59 -61 -185 -153 -210 -153 -6 0 -36 21 -67 46 -68 55 -111 124 -111 177 0
33 7 46 54 92 67 67 74 69 266 49z m-390 2 c0 -3 -4 -8 -10 -11 -5 -3 -10 -1
-10 4 0 6 5 11 10 11 6 0 10 -2 10 -4z m-3730 -196 c0 -5 -4 -10 -10 -10 -5 0
-10 5 -10 10 0 6 5 10 10 10 6 0 10 -4 10 -10z m2347 -216 c-3 -3 -12 -4 -19
-1 -8 3 -5 6 6 6 11 1 17 -2 13 -5z m-2129 -392 c3 -9 -3 -13 -19 -10 -12 1
-24 9 -27 16 -3 9 3 13 19 10 12 -1 24 -9 27 -16z m60 0 c2 -7 -3 -12 -12 -12
-9 0 -16 7 -16 16 0 17 22 14 28 -4z m237 -22 c14 -6 2 -9 -40 -9 -33 0 -69 4
-80 9 -14 6 -2 9 40 9 33 0 69 -4 80 -9z m109 1 c4 -5 0 -11 -6 -14 -18 -5
-48 3 -48 14 0 12 47 12 54 0z m246 -26 c0 -8 -7 -15 -15 -15 -26 0 -18 20 13
29 1 1 2 -6 2 -14z m591 -2 c5 -5 -80 -10 -213 -11 -221 -1 -283 2 -273 17 6
11 475 5 486 -6z m2949 3 c0 -9 -39 -13 -51 -5 -10 6 -4 9 19 9 17 0 32 -2 32
-4z m-2875 -26 c4 -6 -7 -10 -27 -10 -25 0 -29 3 -18 10 19 13 37 13 45 0z
m180 0 c-3 -5 -31 -10 -61 -10 -30 0 -54 5 -54 10 0 6 27 10 61 10 37 0 58 -4
54 -10z m385 0 c0 -6 -63 -10 -169 -10 -103 0 -172 4 -176 10 -4 7 55 10 169
10 111 0 176 -4 176 -10z m205 0 c-3 -5 -35 -10 -71 -10 -36 0 -64 4 -64 10 0
6 30 10 71 10 44 0 68 -4 64 -10z m1400 -30 c-3 -5 -10 -10 -16 -10 -5 0 -9 5
-9 10 0 6 7 10 16 10 8 0 12 -4 9 -10z m80 0 c-3 -5 -12 -7 -20 -3 -21 7 -19
13 6 13 11 0 18 -4 14 -10z"/>
<path d="M7471 2424 c0 -11 3 -14 6 -6 3 7 2 16 -1 19 -3 4 -6 -2 -5 -13z"/>
<path d="M6298 643 c6 -2 18 -2 25 0 6 3 1 5 -13 5 -14 0 -19 -2 -12 -5z"/>
</g>
</svg>
