<svg id="svg" version="1.1" xmlns="http://www.w3.org/2000/svg" xmlns:xlink="http://www.w3.org/1999/xlink" width="400" height="400" viewBox="0, 0, 400,400"><g id="svgg"><path id="path0" d="M127.219 182.061 C 124.699 182.253,121.099 182.676,119.219 183.002 C 116.150 183.533,115.319 183.693,113.200 184.164 C 112.870 184.237,111.831 184.434,110.891 184.601 C 109.144 184.912,108.173 185.599,109.476 185.602 C 109.874 185.603,111.100 186.279,112.200 187.104 C 116.854 190.597,118.353 191.047,121.988 190.041 C 123.551 189.608,124.343 189.223,123.988 189.067 C 123.664 188.925,124.008 188.917,124.750 189.047 C 125.771 189.228,126.025 189.164,125.791 188.785 C 125.563 188.416,125.761 188.337,126.541 188.487 C 127.123 188.598,127.600 188.513,127.600 188.298 C 127.600 188.083,128.050 187.993,128.600 188.098 C 129.150 188.203,129.600 188.113,129.600 187.898 C 129.600 187.683,129.960 187.601,130.400 187.716 C 130.839 187.831,131.302 187.759,131.427 187.556 C 131.553 187.353,131.806 187.280,131.989 187.393 C 133.429 188.283,141.142 183.804,140.061 182.706 C 139.071 181.699,134.798 181.485,127.219 182.061 M137.780 183.252 C 138.016 183.468,137.957 183.789,137.621 184.100 C 137.296 184.402,137.184 184.419,137.339 184.142 C 137.737 183.432,136.657 183.206,132.467 183.125 L 128.600 183.051 132.000 182.811 C 135.585 182.557,137.153 182.677,137.780 183.252 M126.900 183.482 C 126.405 183.578,125.595 183.578,125.100 183.482 C 124.605 183.387,125.010 183.309,126.000 183.309 C 126.990 183.309,127.395 183.387,126.900 183.482 M123.105 183.875 C 122.722 183.975,122.002 183.979,121.505 183.883 C 121.007 183.787,121.320 183.705,122.200 183.701 C 123.080 183.696,123.487 183.775,123.105 183.875 M119.000 184.423 C 118.120 184.605,116.950 184.741,116.400 184.724 C 115.011 184.683,117.771 184.108,119.400 184.099 C 120.400 184.093,120.334 184.147,119.000 184.423 M96.952 189.678 C 96.647 190.171,97.932 191.289,98.441 190.974 C 98.887 190.699,98.459 189.708,97.782 189.448 C 97.476 189.331,97.102 189.434,96.952 189.678 M96.400 191.597 C 96.400 192.295,99.241 203.336,99.704 204.439 C 100.088 205.352,100.265 205.430,101.177 205.086 L 102.213 204.695 100.606 198.381 C 99.723 194.908,98.910 191.986,98.800 191.889 C 98.302 191.450,96.400 191.218,96.400 191.597 M102.857 213.551 C 102.463 213.804,102.402 214.270,102.633 215.250 C 102.809 215.993,102.918 216.735,102.876 216.900 C 102.834 217.065,102.988 217.200,103.218 217.200 C 103.447 217.200,103.599 217.425,103.554 217.700 C 103.510 217.975,103.581 218.470,103.712 218.800 C 103.843 219.130,104.337 220.930,104.810 222.800 C 105.683 226.245,105.803 226.773,106.243 229.100 C 106.378 229.815,106.619 230.400,106.778 230.400 C 106.937 230.400,107.075 230.625,107.085 230.900 C 107.095 231.175,107.505 232.840,107.996 234.600 C 108.486 236.360,109.141 238.880,109.450 240.200 C 109.760 241.520,110.192 243.050,110.412 243.600 C 110.631 244.150,110.893 244.960,110.994 245.400 C 112.248 250.866,112.930 252.741,113.740 252.958 C 115.116 253.328,121.489 253.233,125.400 252.786 C 130.751 252.174,130.800 252.156,130.800 250.859 C 130.800 249.282,130.827 249.288,126.707 249.874 C 121.170 250.662,115.313 250.684,114.549 249.920 C 114.212 249.583,113.158 246.268,112.207 242.554 C 111.256 238.839,109.543 232.290,108.400 228.000 C 107.258 223.710,105.924 218.670,105.436 216.801 C 104.557 213.430,104.046 212.785,102.857 213.551 M140.800 226.153 C 140.800 226.796,141.084 227.181,141.669 227.334 C 143.413 227.790,143.834 226.417,142.181 225.664 C 140.824 225.046,140.800 225.054,140.800 226.153 M145.600 228.936 C 145.600 229.587,147.276 230.400,148.619 230.400 C 149.806 230.400,149.936 229.408,148.826 228.814 C 147.700 228.211,145.600 228.290,145.600 228.936 M152.667 231.067 C 152.138 231.596,152.424 231.946,153.739 232.380 C 155.730 233.037,157.024 232.384,155.920 231.280 C 155.410 230.770,153.114 230.619,152.667 231.067 M160.100 233.065 C 159.259 233.404,159.543 234.371,160.559 234.626 C 162.987 235.235,164.574 234.018,162.358 233.245 C 160.986 232.767,160.863 232.757,160.100 233.065 M166.800 235.153 C 166.800 236.206,170.011 236.952,170.580 236.032 C 170.992 235.365,169.568 234.400,168.171 234.400 C 167.095 234.400,166.800 234.562,166.800 235.153 M174.400 236.014 C 173.646 236.519,174.866 237.604,176.176 237.594 C 177.690 237.583,178.319 236.876,177.424 236.192 C 176.528 235.509,175.265 235.435,174.400 236.014 M181.413 237.179 C 180.925 237.969,181.645 238.400,183.453 238.400 C 184.957 238.400,185.236 238.283,185.126 237.700 C 184.973 236.896,181.858 236.459,181.413 237.179 M227.200 311.200 C 227.200 311.420,226.210 311.600,225.000 311.600 L 222.800 311.600 222.811 313.100 C 222.817 313.925,223.073 319.532,223.380 325.560 C 223.914 336.064,223.905 336.622,223.178 338.977 C 221.384 344.784,214.974 348.800,207.496 348.800 C 201.064 348.800,199.984 344.783,206.204 343.995 C 211.200 343.363,215.545 341.215,217.425 338.450 C 218.623 336.686,218.637 335.874,217.633 325.600 C 217.214 321.310,216.750 316.405,216.602 314.700 L 216.332 311.601 213.666 311.804 C 212.200 311.916,208.303 312.198,205.007 312.430 C 201.711 312.663,198.949 312.918,198.870 312.997 C 198.791 313.076,198.783 315.989,198.853 319.470 C 199.084 330.993,198.960 331.776,196.404 335.000 C 191.690 340.945,177.600 343.471,177.600 338.370 C 177.600 336.935,179.323 336.000,181.969 336.000 C 185.713 336.000,191.569 332.765,193.069 329.868 C 193.769 328.517,193.182 314.678,192.389 313.846 C 191.979 313.415,180.800 314.784,180.800 315.265 C 180.800 315.449,180.377 315.600,179.860 315.600 C 177.926 315.600,162.754 318.391,162.400 318.811 C 162.290 318.942,161.120 319.282,159.800 319.566 C 155.771 320.434,148.212 322.513,148.000 322.811 C 147.890 322.966,147.350 323.220,146.800 323.377 C 142.902 324.486,139.102 325.785,137.400 326.590 C 136.300 327.110,134.050 328.130,132.400 328.856 C 130.750 329.583,129.306 330.306,129.192 330.463 C 129.078 330.621,128.112 331.123,127.046 331.580 C 125.979 332.037,123.674 333.399,121.922 334.606 C 120.170 335.813,118.629 336.800,118.497 336.800 C 118.066 336.800,113.226 341.504,111.469 343.631 C 110.179 345.192,108.000 349.291,108.000 350.155 C 108.000 350.473,107.775 350.808,107.500 350.900 C 106.858 351.114,106.806 359.049,107.438 360.437 C 110.329 366.788,110.578 367.175,114.053 370.724 C 117.351 374.092,123.114 378.222,126.800 379.858 C 127.570 380.200,128.471 380.719,128.801 381.012 C 129.132 381.305,130.783 382.098,132.470 382.773 C 134.158 383.449,136.407 384.432,137.469 384.957 C 138.531 385.482,141.020 386.425,143.000 387.053 C 144.980 387.681,146.690 388.310,146.800 388.451 C 147.014 388.725,149.775 389.489,156.200 391.051 C 158.400 391.585,160.496 392.187,160.858 392.388 C 161.590 392.795,172.566 395.001,176.000 395.431 C 177.210 395.582,178.380 395.842,178.600 396.007 C 179.638 396.786,198.779 398.863,211.571 399.585 C 220.939 400.113,248.162 400.120,256.800 399.596 C 270.013 398.796,288.436 396.814,289.977 396.028 C 290.319 395.853,291.410 395.594,292.400 395.452 C 297.136 394.774,307.200 392.667,307.200 392.353 C 307.200 392.159,307.515 391.999,307.900 391.998 C 309.050 391.994,319.463 389.302,320.884 388.640 C 321.608 388.304,323.730 387.552,325.600 386.970 C 327.470 386.388,329.720 385.564,330.600 385.140 C 331.480 384.716,333.730 383.720,335.600 382.926 C 337.470 382.132,339.270 381.260,339.600 380.988 C 339.930 380.716,341.190 380.029,342.400 379.460 C 348.220 376.727,356.841 369.227,359.045 364.978 C 362.621 358.085,361.739 349.423,356.858 343.504 C 353.561 339.506,346.374 333.946,341.600 331.701 C 340.390 331.132,339.303 330.522,339.184 330.345 C 339.065 330.168,337.715 329.506,336.184 328.873 C 334.653 328.241,332.410 327.259,331.200 326.693 C 329.990 326.126,327.110 325.083,324.800 324.375 C 322.490 323.666,320.510 322.962,320.400 322.808 C 320.290 322.655,319.750 322.406,319.200 322.255 C 318.650 322.104,317.210 321.709,316.000 321.377 C 314.790 321.046,312.180 320.417,310.200 319.981 C 308.220 319.544,306.240 319.018,305.800 318.811 C 304.765 318.324,298.201 317.015,292.600 316.178 C 290.180 315.817,287.840 315.359,287.400 315.161 C 286.155 314.599,274.253 313.191,274.013 313.578 C 273.531 314.356,274.839 328.598,275.520 329.987 C 276.912 332.827,282.789 336.000,286.655 336.000 C 290.387 336.000,292.264 338.623,289.722 340.288 C 287.266 341.897,279.832 340.797,275.821 338.230 C 270.923 335.097,269.717 332.630,269.175 324.637 C 268.499 314.650,268.134 312.911,266.664 312.657 C 264.691 312.316,248.394 311.473,248.166 311.700 C 248.055 311.812,248.152 314.670,248.383 318.052 C 248.613 321.433,248.989 326.990,249.217 330.400 C 249.445 333.810,249.828 337.098,250.067 337.707 C 251.137 340.426,256.522 343.336,261.683 343.984 C 267.933 344.769,266.961 348.808,260.526 348.794 C 250.197 348.770,244.594 343.504,243.937 333.200 C 243.164 321.077,242.065 311.937,241.311 311.365 C 240.436 310.701,227.200 310.547,227.200 311.200 " stroke="none" fill="#9bd7ee" fill-rule="evenodd"></path><path id="path1" d="M187.154 84.003 C 178.200 85.934,174.723 87.533,170.025 91.878 C 162.624 98.724,157.949 107.174,156.624 116.102 C 151.474 150.784,174.421 177.604,218.197 188.066 C 240.452 193.385,267.918 189.789,282.200 179.687 C 291.446 173.147,301.933 158.326,304.584 148.053 C 308.610 132.449,308.543 120.963,304.362 110.292 C 301.261 102.375,297.440 100.875,276.600 99.395 C 259.449 98.177,247.912 96.816,243.000 95.432 C 237.013 93.744,233.334 92.622,229.200 91.221 C 206.967 83.690,196.742 81.935,187.154 84.003 M213.356 118.389 C 216.207 119.118,222.246 121.887,221.850 122.284 C 221.755 122.379,220.535 122.007,219.139 121.458 C 215.404 119.990,213.792 119.621,209.845 119.333 L 206.290 119.072 206.556 120.436 C 209.167 133.864,202.865 146.380,193.484 146.396 C 187.276 146.407,182.400 139.741,182.400 131.242 L 182.400 128.800 181.100 128.782 C 179.895 128.765,179.980 128.680,182.273 127.619 C 183.633 126.989,186.045 125.633,187.634 124.605 C 197.579 118.172,205.255 116.317,213.356 118.389 M263.449 131.782 C 271.422 136.013,289.242 141.177,295.970 141.206 C 296.756 141.209,297.670 141.404,298.000 141.638 C 298.723 142.151,287.847 141.818,285.535 141.256 C 284.097 140.907,284.066 140.924,283.820 142.234 C 283.472 144.089,280.630 149.652,279.519 150.653 C 278.430 151.635,273.246 151.385,268.209 150.108 L 265.418 149.400 264.641 147.400 C 263.815 145.276,263.488 138.002,264.095 135.277 C 264.412 133.854,263.964 133.195,261.400 131.308 C 259.640 130.013,260.483 130.208,263.449 131.782 M246.240 150.960 C 249.191 153.911,247.042 158.800,242.794 158.800 C 239.195 158.800,237.217 155.047,239.000 151.600 C 240.306 149.074,244.025 148.745,246.240 150.960 M218.690 166.964 C 222.544 172.432,230.177 175.579,239.600 175.585 C 246.044 175.590,248.403 174.871,255.400 170.771 C 256.812 169.943,256.614 170.243,253.713 173.329 C 251.905 175.252,250.077 177.614,249.651 178.579 C 249.001 180.048,247.863 181.200,247.063 181.200 C 246.959 181.200,247.160 180.303,247.511 179.207 C 248.302 176.733,248.154 176.586,245.522 177.226 C 239.010 178.809,225.160 176.617,221.663 173.449 C 220.690 172.568,217.904 168.052,217.214 166.238 C 216.613 164.657,217.303 164.997,218.690 166.964 M90.105 182.431 C 88.610 182.880,88.042 184.296,88.741 185.829 C 89.445 187.376,91.652 187.177,93.481 185.400 C 94.274 184.630,95.075 184.000,95.261 184.000 C 95.680 184.000,95.711 182.916,95.300 182.663 C 94.583 182.221,91.291 182.075,90.105 182.431 M132.000 182.811 L 128.600 183.051 132.467 183.125 C 136.657 183.206,137.737 183.432,137.339 184.142 C 137.184 184.419,137.296 184.402,137.621 184.100 C 138.869 182.942,136.816 182.471,132.000 182.811 M125.100 183.482 C 125.595 183.578,126.405 183.578,126.900 183.482 C 127.395 183.387,126.990 183.309,126.000 183.309 C 125.010 183.309,124.605 183.387,125.100 183.482 M121.505 183.883 C 122.002 183.979,122.722 183.975,123.105 183.875 C 123.487 183.775,123.080 183.696,122.200 183.701 C 121.320 183.705,121.007 183.787,121.505 183.883 M98.400 184.355 C 98.400 184.551,97.809 184.822,97.086 184.957 C 94.870 185.373,92.551 188.000,94.400 188.000 C 94.620 188.000,94.800 188.180,94.800 188.400 C 94.800 188.620,94.035 188.803,93.100 188.806 C 90.888 188.814,90.306 189.221,90.468 190.643 C 90.694 192.620,92.792 192.502,94.258 190.431 C 94.886 189.543,95.625 188.813,95.900 188.809 C 96.498 188.798,96.564 189.452,96.000 189.800 C 95.109 190.350,95.694 191.106,97.272 191.443 L 98.943 191.800 100.572 198.200 L 102.200 204.600 105.800 204.800 C 109.774 205.021,110.158 205.164,110.954 206.725 C 111.639 208.070,111.591 211.042,110.886 210.898 C 110.611 210.842,109.355 211.220,108.093 211.738 C 106.832 212.257,105.501 212.786,105.135 212.915 C 104.394 213.175,104.123 211.923,108.402 228.000 C 109.543 232.290,111.250 238.818,112.195 242.506 C 113.139 246.194,114.134 249.479,114.405 249.806 C 115.338 250.930,130.320 250.041,130.721 248.838 C 130.801 248.597,131.167 248.400,131.533 248.399 C 133.517 248.397,140.127 246.420,141.050 245.553 C 142.052 244.612,142.057 244.574,141.794 239.803 C 141.362 231.964,141.555 232.213,130.801 225.583 C 129.651 224.874,124.987 220.446,125.235 220.298 C 127.475 218.964,127.965 218.808,128.276 219.329 C 128.812 220.230,130.752 221.304,131.397 221.057 C 132.315 220.704,132.127 220.071,130.723 218.788 C 129.319 217.506,129.413 216.744,130.852 217.751 C 131.678 218.330,131.817 218.328,132.487 217.721 C 133.435 216.864,134.427 217.603,133.625 218.569 C 132.953 219.380,137.842 222.629,138.683 221.931 C 139.194 221.507,139.252 221.554,139.350 222.467 C 139.378 222.723,139.653 223.018,139.962 223.121 C 140.426 223.275,140.481 222.759,140.279 220.154 C 140.145 218.419,139.656 211.420,139.194 204.600 C 138.732 197.780,138.266 191.614,138.158 190.897 C 137.844 188.802,136.614 188.283,131.738 188.191 C 129.150 188.142,127.738 188.250,128.067 188.471 C 128.396 188.693,128.006 188.727,127.042 188.559 C 125.851 188.353,125.557 188.407,125.792 188.787 C 126.026 189.165,125.774 189.221,124.750 189.019 C 123.875 188.845,123.589 188.882,123.937 189.122 C 124.348 189.406,124.254 189.546,123.537 189.719 C 123.022 189.843,121.880 190.129,121.000 190.355 C 118.441 191.013,116.406 190.261,112.200 187.104 C 111.100 186.279,109.896 185.603,109.524 185.602 C 109.152 185.601,108.736 185.420,108.600 185.200 C 108.464 184.980,107.834 184.800,107.200 184.800 C 106.566 184.800,105.936 184.620,105.800 184.400 C 105.495 183.906,98.400 183.863,98.400 184.355 M116.800 184.400 C 115.738 184.624,115.641 184.702,116.400 184.724 C 116.950 184.741,118.120 184.605,119.000 184.423 C 120.334 184.147,120.400 184.093,119.400 184.099 C 118.740 184.102,117.570 184.238,116.800 184.400 M84.210 187.493 C 83.150 187.762,82.428 188.777,82.413 190.020 C 82.381 192.571,85.432 192.842,87.028 190.430 C 87.599 189.567,88.322 188.762,88.633 188.643 C 91.016 187.728,87.198 186.736,84.210 187.493 M98.552 190.218 C 98.669 190.524,98.619 190.864,98.441 190.974 C 97.932 191.289,96.647 190.171,96.952 189.678 C 97.288 189.134,98.262 189.462,98.552 190.218 M132.566 196.473 C 133.311 197.536,132.719 198.503,131.435 198.319 C 129.985 198.112,130.206 195.639,131.677 195.606 C 131.830 195.603,132.230 195.993,132.566 196.473 M135.919 197.435 C 136.065 198.454,135.137 199.304,134.251 198.964 C 133.853 198.811,133.600 198.255,133.600 197.531 C 133.600 196.042,135.708 195.955,135.919 197.435 M127.194 197.300 C 127.197 197.025,127.393 196.800,127.629 196.800 C 127.865 196.800,127.998 197.115,127.924 197.500 C 127.739 198.461,126.640 198.385,126.484 197.400 C 126.379 196.740,126.430 196.705,126.772 197.200 C 127.053 197.605,127.190 197.638,127.194 197.300 M126.711 201.155 C 131.462 203.578,133.244 209.527,130.695 214.451 C 127.049 221.494,116.774 221.405,113.149 214.300 C 108.873 205.919,118.244 196.835,126.711 201.155 M241.227 202.085 C 241.212 202.682,241.581 204.188,242.047 205.433 C 242.512 206.677,242.735 207.809,242.542 207.948 C 238.842 210.605,230.347 216.000,229.862 216.000 C 228.679 216.000,222.319 209.090,219.900 205.178 C 217.554 201.384,216.823 200.910,218.566 204.313 C 219.964 207.042,222.398 210.167,225.842 213.657 C 228.528 216.378,228.807 216.800,228.375 217.492 C 227.904 218.245,233.280 227.318,234.055 227.079 C 234.283 227.008,239.906 220.290,243.000 216.391 C 243.660 215.560,244.957 213.992,245.881 212.907 L 247.563 210.934 246.207 208.920 C 245.461 207.813,244.503 206.816,244.078 206.704 C 243.593 206.578,243.048 205.777,242.613 204.551 C 241.371 201.048,241.258 200.847,241.227 202.085 M118.583 202.752 C 112.932 205.319,112.453 213.487,117.770 216.604 C 119.711 217.741,120.894 217.910,120.545 217.000 C 120.418 216.670,119.917 216.400,119.432 216.400 C 118.947 216.400,118.032 215.860,117.400 215.200 C 116.109 213.853,117.038 213.367,118.454 214.649 C 118.848 215.005,119.447 215.191,119.785 215.061 C 120.760 214.687,120.503 214.086,119.250 213.811 C 117.064 213.331,116.203 211.892,116.173 208.668 C 116.136 204.826,115.968 205.001,119.785 204.919 C 122.161 204.867,123.459 204.649,124.176 204.179 C 125.425 203.361,126.396 203.668,126.413 204.887 C 126.420 205.389,126.690 206.149,127.013 206.576 C 128.142 208.070,127.774 210.965,126.288 212.269 C 125.053 213.354,124.997 213.516,125.341 215.011 C 125.826 217.121,125.820 217.118,127.255 215.771 C 133.869 209.557,126.839 199.002,118.583 202.752 M243.600 211.783 C 243.600 212.292,242.464 211.944,242.243 211.367 C 241.772 210.140,242.009 209.859,242.800 210.708 C 243.240 211.180,243.600 211.664,243.600 211.783 M242.025 211.830 C 242.657 212.592,241.837 213.318,240.734 212.975 C 240.367 212.861,239.953 212.953,239.813 213.179 C 239.657 213.431,239.820 213.490,240.234 213.332 C 240.705 213.151,240.852 213.243,240.721 213.636 C 240.618 213.946,240.206 214.263,239.806 214.341 C 239.406 214.419,238.703 214.832,238.243 215.260 C 237.749 215.721,237.078 215.956,236.601 215.836 C 236.157 215.724,235.525 215.803,235.197 216.011 C 234.690 216.331,234.706 216.389,235.300 216.394 C 235.685 216.397,236.000 216.580,236.000 216.800 C 236.000 217.020,235.714 217.200,235.364 217.200 C 235.014 217.200,234.412 217.590,234.026 218.067 C 233.268 219.003,232.157 218.875,231.746 217.804 C 231.414 216.939,232.393 215.905,233.315 216.146 C 233.805 216.274,234.417 215.992,234.989 215.374 C 235.486 214.838,236.186 214.400,236.546 214.400 C 236.906 214.400,237.200 214.220,237.200 214.000 C 237.200 213.780,237.541 213.600,237.957 213.600 C 238.374 213.600,238.818 213.330,238.945 213.000 C 239.071 212.670,239.431 212.400,239.745 212.400 C 240.058 212.400,240.418 212.130,240.545 211.800 C 240.841 211.027,241.367 211.038,242.025 211.830 M138.400 216.300 C 138.400 216.612,138.186 216.795,137.925 216.708 C 137.200 216.467,137.097 215.733,137.789 215.733 C 138.125 215.733,138.400 215.988,138.400 216.300 M250.657 220.488 C 249.662 221.650,246.610 225.292,243.875 228.582 L 238.903 234.564 240.151 236.475 C 240.838 237.526,241.537 238.389,241.704 238.393 C 242.000 238.400,257.442 228.251,258.161 227.576 C 258.473 227.283,255.429 222.230,253.167 219.288 L 252.466 218.377 250.657 220.488 M133.200 222.377 C 133.200 223.426,134.687 224.400,136.289 224.400 C 137.991 224.400,138.073 223.252,136.438 222.286 C 134.818 221.329,133.200 221.375,133.200 222.377 M139.200 225.491 C 139.200 226.272,139.909 227.200,140.507 227.200 C 140.697 227.200,140.796 226.707,140.727 226.103 C 140.579 224.825,139.200 224.271,139.200 225.491 M128.800 230.424 C 128.800 230.631,128.536 230.800,128.213 230.800 C 127.856 230.800,127.715 230.565,127.854 230.202 C 128.091 229.587,128.800 229.753,128.800 230.424 M248.202 231.603 C 248.339 231.825,248.171 232.286,247.829 232.629 C 247.486 232.971,247.025 233.139,246.803 233.002 C 246.581 232.865,246.400 233.054,246.400 233.423 C 246.400 233.915,246.144 234.044,245.437 233.909 C 244.746 233.777,244.532 233.877,244.679 234.262 C 244.917 234.882,244.170 234.999,243.800 234.400 C 243.664 234.180,243.281 234.000,242.948 234.000 C 242.428 234.000,242.435 234.092,242.997 234.654 C 243.458 235.115,243.526 235.434,243.227 235.733 C 242.928 236.032,242.629 235.927,242.215 235.379 C 241.489 234.417,241.629 233.843,242.633 233.661 C 243.870 233.436,246.173 232.287,246.520 231.722 C 246.900 231.102,247.851 231.035,248.202 231.603 M130.400 237.600 C 130.400 237.820,130.130 238.000,129.800 238.000 C 129.470 238.000,129.200 237.820,129.200 237.600 C 129.200 237.380,129.470 237.200,129.800 237.200 C 130.130 237.200,130.400 237.380,130.400 237.600 M134.800 242.200 C 134.800 242.530,134.620 242.800,134.400 242.800 C 134.180 242.800,134.000 242.530,134.000 242.200 C 134.000 241.870,134.180 241.600,134.400 241.600 C 134.620 241.600,134.800 241.870,134.800 242.200 M136.800 245.000 C 136.800 245.373,136.422 245.600,135.800 245.600 C 135.178 245.600,134.800 245.373,134.800 245.000 C 134.800 244.627,135.178 244.400,135.800 244.400 C 136.422 244.400,136.800 244.627,136.800 245.000 " stroke="none" fill="#f2d0b7" fill-rule="evenodd"></path><path id="path2" d="M127.512 1.100 C 125.067 3.692,123.204 12.757,123.201 22.076 C 123.201 24.228,123.022 26.063,122.800 26.200 C 122.313 26.501,122.266 28.670,122.740 28.963 C 122.926 29.078,123.189 31.564,123.323 34.486 C 123.457 37.409,123.967 42.320,124.458 45.400 C 125.664 52.977,125.668 52.940,123.455 56.103 C 122.415 57.589,121.021 60.015,120.358 61.494 C 119.694 62.973,119.005 64.277,118.826 64.391 C 118.425 64.649,115.600 72.142,115.600 72.949 C 115.600 73.270,115.424 73.593,115.210 73.667 C 114.789 73.810,112.798 81.233,111.955 85.800 C 111.671 87.340,111.312 88.690,111.159 88.800 C 108.801 90.490,108.858 128.706,111.219 129.533 C 112.886 130.117,111.483 131.697,109.500 131.470 C 100.659 130.460,71.114 130.851,52.800 132.220 C 37.328 133.377,37.600 133.323,37.600 135.214 C 37.600 136.576,38.738 136.728,44.800 136.178 C 47.990 135.889,52.850 135.525,55.600 135.371 C 58.350 135.216,60.690 134.951,60.800 134.782 C 61.235 134.117,88.741 133.548,99.800 133.976 C 105.740 134.206,111.050 134.397,111.600 134.400 C 112.508 134.405,114.966 139.967,114.338 140.596 C 114.259 140.674,108.796 140.949,102.198 141.207 C 95.599 141.464,90.111 141.812,90.000 141.979 C 89.890 142.146,87.910 142.404,85.600 142.553 C 76.388 143.143,57.276 145.351,55.800 145.995 C 55.360 146.187,51.760 146.815,47.800 147.392 C 43.840 147.968,40.285 148.533,39.900 148.647 C 38.957 148.926,38.957 151.043,39.900 151.543 C 40.619 151.924,51.200 150.511,51.600 149.981 C 51.840 149.662,65.289 147.870,74.200 146.969 C 77.720 146.614,80.960 146.174,81.400 145.992 C 82.761 145.429,93.682 144.751,105.264 144.512 L 116.327 144.283 117.407 146.413 C 118.000 147.585,118.737 148.794,119.043 149.100 C 119.349 149.406,119.600 149.837,119.600 150.057 C 119.600 150.276,120.140 151.241,120.800 152.200 C 121.460 153.159,122.000 154.128,122.000 154.352 C 122.000 154.577,122.249 154.904,122.553 155.080 C 122.857 155.256,123.663 156.231,124.345 157.247 C 125.027 158.262,126.218 159.577,126.992 160.167 C 127.767 160.758,128.400 161.487,128.400 161.788 C 128.400 162.089,129.039 162.730,129.820 163.213 C 130.602 163.695,131.527 164.527,131.877 165.061 C 132.227 165.595,133.478 166.673,134.657 167.455 C 135.835 168.238,136.800 169.007,136.800 169.165 C 136.800 169.494,141.877 172.800,142.382 172.800 C 142.565 172.800,142.806 173.037,142.917 173.328 C 143.028 173.618,144.308 174.465,145.760 175.210 C 147.212 175.954,148.400 176.681,148.400 176.824 C 148.400 176.967,150.065 177.855,152.100 178.797 C 154.135 179.740,155.896 180.658,156.013 180.838 C 156.130 181.017,158.085 181.902,160.358 182.802 C 162.630 183.703,164.875 184.686,165.345 184.986 C 165.815 185.285,168.090 186.120,170.400 186.840 C 172.710 187.560,174.690 188.267,174.800 188.412 C 175.038 188.725,179.195 189.963,184.200 191.211 C 186.180 191.705,187.980 192.245,188.200 192.411 C 188.420 192.577,190.000 193.022,191.712 193.399 L 194.824 194.086 193.912 195.026 C 186.312 202.860,185.447 205.532,185.277 221.700 L 185.148 234.001 182.274 233.767 C 173.333 233.039,161.338 231.150,160.800 230.385 C 160.690 230.228,159.970 229.973,159.200 229.816 C 156.999 229.369,149.846 227.152,149.376 226.772 C 149.143 226.583,147.618 225.885,145.988 225.222 C 142.685 223.878,141.601 224.098,143.191 225.791 C 144.074 226.730,144.091 226.837,143.466 227.527 C 143.009 228.032,142.800 228.977,142.800 230.535 C 142.800 233.637,143.810 234.625,149.000 236.600 C 151.200 237.438,153.180 238.257,153.400 238.422 C 153.894 238.791,159.570 240.484,163.600 241.464 C 165.250 241.866,166.690 242.303,166.800 242.435 C 166.910 242.568,167.630 242.785,168.400 242.919 C 176.488 244.318,179.698 244.812,182.189 245.038 C 183.801 245.184,185.330 245.433,185.587 245.592 C 185.889 245.778,186.428 250.337,187.107 258.440 C 187.685 265.348,188.275 271.090,188.418 271.200 C 188.560 271.310,189.370 279.950,190.217 290.400 C 191.064 300.850,191.882 309.490,192.035 309.600 C 192.187 309.710,192.408 310.700,192.524 311.800 C 192.641 312.900,192.918 314.700,193.140 315.800 C 193.362 316.900,193.673 320.360,193.832 323.489 L 194.120 329.179 193.070 330.766 C 191.223 333.557,184.517 336.800,180.592 336.800 C 178.043 336.800,177.127 338.833,179.204 339.884 C 182.835 341.721,191.170 339.525,195.101 335.696 C 198.232 332.647,198.555 331.203,198.309 321.357 C 198.197 316.900,198.242 313.107,198.407 312.927 C 198.573 312.747,198.473 307.200,198.184 300.600 C 197.895 294.000,197.359 281.490,196.992 272.800 C 196.626 264.110,196.177 256.640,195.995 256.200 C 195.661 255.394,194.762 236.740,195.042 236.437 C 195.125 236.348,196.679 236.496,198.496 236.766 C 200.313 237.037,203.149 237.459,204.797 237.704 C 209.192 238.357,208.932 237.735,210.006 250.200 C 210.517 256.140,211.048 261.090,211.185 261.200 C 211.396 261.369,213.903 288.318,214.674 298.700 C 214.808 300.515,215.050 302.000,215.212 302.000 C 215.373 302.000,215.628 303.935,215.779 306.300 C 215.930 308.665,216.299 311.320,216.599 312.200 C 217.105 313.683,218.056 323.127,218.656 332.614 C 219.074 339.237,215.226 343.184,207.150 344.418 C 202.920 345.064,202.800 345.114,202.800 346.228 C 202.800 350.076,214.299 348.580,219.275 344.085 C 223.202 340.537,223.625 338.766,223.148 327.885 C 222.953 323.438,222.719 316.560,222.627 312.600 C 222.375 301.680,219.502 247.829,219.160 247.595 C 218.994 247.482,218.801 245.621,218.730 243.460 L 218.600 239.531 220.600 239.758 C 221.700 239.882,224.970 240.102,227.866 240.247 L 233.131 240.509 233.348 241.755 C 233.467 242.440,233.688 244.350,233.839 246.000 C 233.990 247.650,234.233 249.090,234.379 249.200 C 234.525 249.310,235.433 256.870,236.396 266.000 C 237.359 275.130,238.260 282.690,238.399 282.800 C 238.537 282.910,239.299 289.370,240.093 297.157 C 240.886 304.943,241.707 311.423,241.916 311.557 C 242.374 311.850,243.784 323.425,244.407 332.000 C 244.945 339.417,245.412 340.898,248.043 343.529 C 252.911 348.397,265.200 350.306,265.200 346.194 C 265.200 345.110,265.078 345.062,260.619 344.383 C 256.115 343.696,251.248 340.800,249.758 337.919 C 249.006 336.465,247.383 315.086,247.790 312.000 C 248.051 310.025,246.409 282.322,246.012 282.000 C 245.808 281.834,243.128 242.769,243.183 240.759 C 243.197 240.234,244.282 239.989,249.214 239.398 C 252.522 239.002,255.322 238.525,255.438 238.339 C 255.553 238.153,256.153 238.000,256.771 238.000 C 258.101 238.000,257.825 236.726,259.631 251.200 C 260.359 257.030,261.073 261.890,261.218 262.000 C 261.432 262.162,263.733 280.456,264.690 289.600 C 264.817 290.810,265.041 291.890,265.187 292.000 C 265.334 292.110,265.956 296.790,266.569 302.400 C 267.182 308.010,267.823 312.690,267.993 312.800 C 268.426 313.080,268.712 315.177,269.384 323.000 C 270.217 332.705,271.695 335.796,276.732 338.365 C 280.261 340.166,287.013 340.989,289.196 339.884 C 291.273 338.833,290.357 336.800,287.808 336.800 C 284.006 336.800,277.412 333.655,275.464 330.913 C 274.386 329.394,274.311 329.005,273.975 323.157 C 273.781 319.771,273.549 316.232,273.459 315.294 C 273.370 314.355,273.469 313.481,273.679 313.351 C 274.126 313.075,273.727 304.624,273.209 303.400 C 272.937 302.757,270.668 271.715,269.701 255.400 C 269.584 253.420,269.370 251.710,269.226 251.600 C 269.082 251.490,268.380 242.850,267.665 232.400 C 266.350 213.151,265.822 208.000,265.164 208.000 C 264.964 208.000,264.800 207.717,264.800 207.372 C 264.800 206.455,262.404 200.849,261.862 200.499 C 261.608 200.334,261.096 199.651,260.725 198.981 L 260.050 197.761 263.604 197.043 C 265.559 196.648,267.213 196.199,267.279 196.045 C 267.346 195.892,269.266 195.155,271.546 194.409 C 273.826 193.662,275.904 192.838,276.164 192.578 C 276.425 192.318,277.069 191.969,277.597 191.801 C 279.448 191.213,283.804 189.160,284.212 188.682 C 284.438 188.417,285.788 187.587,287.212 186.837 C 288.635 186.088,290.329 184.963,290.976 184.337 C 291.623 183.712,292.356 183.200,292.607 183.200 C 293.274 183.200,302.153 174.423,303.027 172.900 C 303.488 172.096,304.006 171.667,304.386 171.775 C 304.724 171.870,306.440 172.169,308.200 172.438 C 309.960 172.707,311.490 173.046,311.600 173.191 C 311.710 173.337,313.420 173.767,315.400 174.149 C 320.294 175.092,325.713 176.425,326.200 176.806 C 326.754 177.239,335.665 179.600,336.746 179.600 C 338.281 179.600,338.419 176.725,336.904 176.296 C 336.517 176.186,333.680 175.441,330.600 174.640 C 327.520 173.839,324.711 173.022,324.358 172.825 C 323.526 172.359,313.552 170.195,309.300 169.557 C 305.566 168.997,305.608 169.040,307.107 167.243 L 308.215 165.917 313.807 166.580 C 320.832 167.413,328.751 168.703,329.800 169.185 C 331.120 169.791,336.242 170.800,338.003 170.800 L 339.648 170.800 339.524 169.304 L 339.400 167.807 334.000 166.736 C 331.030 166.146,328.120 165.650,327.533 165.632 C 326.947 165.614,326.407 165.435,326.333 165.233 C 326.216 164.909,318.824 163.718,312.300 162.971 C 311.035 162.826,310.000 162.642,310.000 162.562 C 310.000 162.022,311.348 159.200,311.606 159.200 C 311.909 159.200,312.346 158.135,314.047 153.243 C 314.459 152.057,314.962 150.887,315.164 150.643 C 315.658 150.048,317.385 143.807,318.221 139.600 C 318.592 137.730,319.045 136.013,319.226 135.785 C 319.691 135.201,321.087 125.270,321.641 118.600 C 322.490 108.379,321.211 92.213,319.203 87.800 C 319.002 87.360,318.307 85.200,317.658 83.000 C 317.009 80.800,316.369 78.730,316.236 78.400 C 316.083 78.020,317.109 76.404,319.027 74.000 C 320.695 71.910,322.167 69.930,322.298 69.600 C 322.429 69.270,322.974 68.552,323.508 68.005 C 324.043 67.458,324.816 66.352,325.227 65.547 C 325.638 64.742,326.240 63.817,326.566 63.491 C 327.167 62.891,328.239 61.099,329.732 58.200 C 330.186 57.320,330.681 56.510,330.832 56.400 C 331.809 55.690,333.710 50.338,333.893 47.783 L 334.095 44.966 332.547 43.669 C 331.696 42.956,330.736 42.155,330.413 41.889 C 329.867 41.440,327.190 40.003,322.727 37.764 C 320.436 36.614,315.316 34.800,314.364 34.800 C 313.980 34.800,313.606 34.619,313.533 34.399 C 312.793 32.180,286.609 31.435,277.623 33.376 L 275.046 33.933 271.623 32.284 C 269.740 31.377,268.064 30.416,267.897 30.148 C 267.730 29.879,266.920 29.442,266.097 29.175 C 265.274 28.909,263.340 28.071,261.800 27.313 C 260.260 26.554,257.110 25.297,254.800 24.519 C 252.490 23.740,250.420 22.966,250.200 22.798 C 249.417 22.201,238.746 19.836,234.678 19.358 C 233.425 19.210,232.400 18.960,232.400 18.802 C 232.400 18.644,231.365 18.404,230.100 18.269 C 228.835 18.134,225.460 17.750,222.600 17.416 C 205.999 15.476,184.802 16.207,179.274 18.910 C 178.688 19.197,178.247 19.221,178.074 18.977 C 177.515 18.188,170.961 13.493,169.114 12.556 C 168.061 12.023,167.200 11.447,167.200 11.276 C 167.200 11.105,165.715 10.271,163.900 9.423 C 162.085 8.575,160.330 7.671,160.000 7.414 C 159.383 6.934,155.040 5.246,152.200 4.382 C 151.320 4.115,150.416 3.751,150.191 3.575 C 146.875 0.970,129.431 -0.934,127.512 1.100 M206.923 80.037 C 211.272 80.930,215.614 82.298,224.600 85.607 C 241.618 91.874,252.268 94.013,275.400 95.808 C 292.796 97.159,296.678 98.290,300.684 103.180 C 312.435 117.521,309.850 147.625,295.185 167.200 C 278.268 189.782,249.248 196.553,211.200 186.795 C 171.906 176.718,147.751 143.270,157.042 111.800 C 163.473 90.016,185.916 75.724,206.923 80.037 M218.180 200.400 C 220.292 205.428,228.251 215.600,230.074 215.600 C 230.274 215.600,233.194 213.765,236.563 211.522 L 242.689 207.444 241.678 205.431 C 240.440 202.966,240.170 198.711,241.238 198.494 C 241.742 198.392,241.974 198.953,242.336 201.146 C 242.814 204.036,243.860 206.393,244.668 206.397 C 244.925 206.399,248.054 210.765,251.622 216.100 C 255.189 221.435,258.354 226.084,258.654 226.431 C 258.954 226.779,259.200 227.175,259.200 227.311 C 259.200 227.713,242.373 238.800,241.764 238.800 C 241.458 238.800,240.547 237.765,239.739 236.500 C 237.711 233.324,234.560 228.642,230.789 223.200 C 227.664 218.690,227.107 217.431,228.091 217.103 C 228.365 217.012,227.066 215.436,225.163 213.550 C 219.418 207.857,213.283 196.858,216.086 197.276 C 216.704 197.368,217.247 198.179,218.180 200.400 M122.400 200.917 C 122.400 201.286,122.987 201.592,124.007 201.755 C 127.126 202.253,130.390 206.441,130.398 209.954 C 130.405 213.046,126.746 218.317,125.379 217.183 C 124.702 216.621,124.634 216.943,125.205 218.010 C 125.600 218.748,125.645 218.747,127.001 217.946 C 134.337 213.618,132.211 202.454,123.700 200.617 C 122.701 200.402,122.400 200.471,122.400 200.917 M124.252 204.526 L 123.131 205.420 123.628 208.810 C 124.225 212.877,124.453 213.216,125.877 212.152 C 127.510 210.933,127.907 206.400,126.381 206.400 C 126.172 206.400,125.997 205.995,125.994 205.500 C 125.983 203.839,125.472 203.553,124.252 204.526 M100.342 205.522 C 96.067 205.878,96.222 213.600,100.504 213.600 C 104.476 213.600,111.173 209.541,110.649 207.452 C 110.140 205.423,107.483 204.926,100.342 205.522 M148.680 228.189 C 149.623 228.459,150.229 229.706,149.774 230.442 C 149.065 231.589,145.200 230.185,145.200 228.780 C 145.200 227.712,146.341 227.518,148.680 228.189 M156.721 231.349 C 158.197 232.825,154.798 233.915,152.889 232.577 C 151.908 231.890,151.726 230.988,152.500 230.645 C 153.368 230.260,156.085 230.713,156.721 231.349 M163.222 233.138 C 164.568 234.227,164.018 235.200,162.057 235.200 C 159.998 235.200,158.376 233.993,159.162 233.046 C 159.883 232.178,162.099 232.228,163.222 233.138 M170.755 234.998 C 171.763 235.979,170.983 236.800,169.041 236.800 C 167.364 236.800,166.000 236.078,166.000 235.191 C 166.000 233.983,169.563 233.839,170.755 234.998 M178.004 235.923 C 178.843 236.602,178.856 236.687,178.220 237.323 C 177.000 238.542,173.600 237.895,173.600 236.443 C 173.600 235.069,176.523 234.724,178.004 235.923 M185.462 236.851 C 186.311 237.556,186.104 237.997,184.634 238.612 C 182.912 239.331,180.800 238.746,180.800 237.548 C 180.800 236.123,184.007 235.644,185.462 236.851 " stroke="none" fill="#040404" fill-rule="evenodd"></path><path id="path3" d="M203.405 119.650 C 200.296 120.134,196.485 121.483,192.787 123.406 C 190.924 124.375,187.915 125.935,186.100 126.873 L 182.800 128.578 182.800 131.035 C 182.800 141.991,190.052 149.086,197.472 145.389 C 204.442 141.915,208.747 130.996,206.561 122.332 C 205.775 119.217,205.839 119.271,203.405 119.650 M264.569 134.051 C 263.400 135.941,264.125 147.102,265.526 148.786 C 266.341 149.767,271.115 150.750,275.783 150.899 L 278.935 151.000 280.234 149.313 C 282.287 146.646,284.278 140.800,283.133 140.800 C 281.723 140.800,273.396 137.725,269.495 135.764 C 264.680 133.344,264.948 133.437,264.569 134.051 M240.487 150.224 C 238.544 151.585,237.900 154.272,239.004 156.408 C 240.244 158.806,244.015 159.247,246.031 157.231 C 249.597 153.664,244.597 147.345,240.487 150.224 M218.723 168.648 C 221.059 173.275,223.024 174.718,229.400 176.492 C 233.276 177.570,242.535 177.893,245.600 177.057 C 248.320 176.315,248.686 176.619,247.910 178.975 C 246.952 181.886,248.294 181.016,250.003 177.618 C 250.497 176.638,251.913 174.772,253.150 173.472 L 255.400 171.108 251.600 173.098 C 241.754 178.256,227.293 176.306,220.048 168.844 L 217.495 166.216 218.723 168.648 M242.000 210.720 C 242.000 211.136,242.867 212.000,243.283 212.000 C 243.461 212.000,243.382 211.640,243.107 211.200 C 242.602 210.392,242.000 210.131,242.000 210.720 M240.910 212.401 C 240.859 213.078,240.971 213.137,241.636 212.781 C 242.069 212.549,242.317 212.189,242.188 211.980 C 241.773 211.310,240.972 211.574,240.910 212.401 M238.800 213.636 C 238.800 213.862,238.622 213.937,238.405 213.803 C 238.178 213.663,238.111 213.823,238.247 214.179 C 238.378 214.521,238.301 214.800,238.076 214.800 C 237.851 214.800,237.576 214.575,237.465 214.300 C 237.344 214.001,237.250 214.082,237.232 214.500 C 237.212 214.944,237.493 215.200,238.000 215.200 C 238.440 215.200,238.800 214.943,238.800 214.629 C 238.800 214.315,239.115 213.995,239.500 213.918 C 240.167 213.783,240.167 213.763,239.500 213.501 C 239.109 213.347,238.800 213.406,238.800 213.636 M235.600 214.720 C 235.600 215.136,236.467 216.000,236.883 216.000 C 237.061 216.000,236.982 215.640,236.707 215.200 C 236.202 214.392,235.600 214.131,235.600 214.720 M234.400 216.176 C 234.400 216.493,234.608 216.881,234.862 217.038 C 235.162 217.224,235.214 217.147,235.011 216.817 C 234.828 216.522,234.928 216.165,235.249 215.961 C 235.685 215.685,235.654 215.611,235.100 215.606 C 234.715 215.603,234.400 215.859,234.400 216.176 M232.404 216.595 C 231.817 217.302,232.142 218.400,232.938 218.400 C 233.994 218.400,234.498 217.355,233.785 216.642 C 233.002 215.859,233.014 215.860,232.404 216.595 M233.525 217.575 C 233.625 217.875,233.475 218.025,233.175 217.925 C 232.886 217.829,232.571 217.514,232.475 217.225 C 232.375 216.925,232.525 216.775,232.825 216.875 C 233.114 216.971,233.429 217.286,233.525 217.575 M246.592 231.614 C 246.437 231.865,246.537 232.279,246.814 232.535 C 247.210 232.900,247.260 232.838,247.050 232.243 C 246.812 231.574,246.859 231.551,247.456 232.043 C 248.034 232.521,248.103 232.518,247.940 232.025 C 247.690 231.267,246.946 231.040,246.592 231.614 M245.200 232.800 C 244.727 233.092,244.708 233.268,245.103 233.663 C 245.490 234.050,245.707 234.053,246.080 233.680 C 246.386 233.374,246.421 233.061,246.177 232.817 C 245.941 232.581,245.564 232.575,245.200 232.800 M242.134 233.909 C 241.785 234.131,241.807 234.457,242.220 235.203 C 242.523 235.751,242.801 236.065,242.836 235.900 C 243.038 234.957,242.983 234.569,242.613 234.306 C 242.386 234.144,242.605 234.009,243.100 234.006 C 243.595 234.003,244.000 234.180,244.000 234.400 C 244.000 234.620,244.174 234.800,244.387 234.800 C 244.601 234.800,244.671 234.530,244.545 234.200 C 244.303 233.570,242.928 233.404,242.134 233.909 " stroke="none" fill="#9b564f" fill-rule="evenodd"></path><path id="path4" d="M298.000 100.925 C 298.000 100.994,298.585 101.579,299.300 102.225 L 300.600 103.400 299.425 102.100 C 298.330 100.888,298.000 100.616,298.000 100.925 M239.300 191.091 C 240.125 191.178,241.475 191.178,242.300 191.091 C 243.125 191.005,242.450 190.934,240.800 190.934 C 239.150 190.934,238.475 191.005,239.300 191.091 M113.701 209.800 C 113.705 210.680,113.787 210.993,113.883 210.495 C 113.979 209.998,113.975 209.278,113.875 208.895 C 113.775 208.513,113.696 208.920,113.701 209.800 M224.000 210.525 C 224.000 210.594,224.585 211.179,225.300 211.825 L 226.600 213.000 225.425 211.700 C 224.330 210.488,224.000 210.216,224.000 210.525 M245.770 219.078 C 245.829 219.475,246.009 219.770,246.171 219.733 C 246.779 219.596,246.802 219.300,246.242 218.835 C 245.772 218.445,245.684 218.490,245.770 219.078 M240.600 225.386 C 239.940 226.374,239.246 227.186,239.057 227.191 C 238.869 227.196,238.818 227.470,238.945 227.800 C 239.111 228.233,238.901 228.400,238.187 228.400 C 237.068 228.400,236.917 228.867,237.800 229.600 C 238.209 229.940,238.400 229.956,238.400 229.652 C 238.400 229.407,238.940 228.691,239.600 228.060 C 240.260 227.429,240.800 226.628,240.800 226.280 C 240.800 225.932,241.008 225.519,241.262 225.362 C 241.571 225.171,241.618 225.262,241.403 225.638 C 241.158 226.068,241.199 226.093,241.575 225.746 C 241.846 225.497,242.007 224.909,241.934 224.441 C 241.820 223.715,241.622 223.855,240.600 225.386 M140.901 229.800 C 140.905 230.680,140.987 230.993,141.083 230.495 C 141.179 229.998,141.175 229.278,141.075 228.895 C 140.975 228.513,140.896 228.920,140.901 229.800 " stroke="none" fill="#88746e" fill-rule="evenodd"></path><path id="path5" d="M192.495 80.044 C 188.270 80.748,179.067 84.607,176.400 86.793 C 175.406 87.608,175.412 87.608,177.400 86.774 C 190.895 81.113,202.231 82.086,229.200 91.221 C 233.334 92.622,237.013 93.744,243.000 95.432 C 247.912 96.816,259.449 98.177,276.600 99.395 C 290.307 100.369,294.119 101.020,298.400 103.118 C 299.610 103.711,300.780 104.263,301.000 104.346 C 301.220 104.428,300.414 103.482,299.208 102.242 C 295.968 98.911,288.674 96.961,276.600 96.199 C 252.889 94.701,240.885 92.257,222.000 85.079 C 209.064 80.163,200.527 78.706,192.495 80.044 M168.975 92.500 L 167.800 93.800 169.100 92.625 C 170.312 91.530,170.584 91.200,170.275 91.200 C 170.206 91.200,169.621 91.785,168.975 92.500 M200.403 118.428 C 197.113 119.290,192.110 121.710,187.634 124.605 C 186.045 125.633,183.633 126.989,182.273 127.619 C 179.980 128.680,179.895 128.765,181.100 128.782 L 182.400 128.800 182.440 131.500 C 182.462 132.985,182.612 134.650,182.774 135.200 C 182.936 135.750,182.985 134.473,182.883 132.362 L 182.697 128.523 185.249 127.258 C 186.652 126.562,189.240 125.186,191.000 124.200 C 197.484 120.566,204.836 118.414,205.882 119.844 C 206.375 120.519,206.400 120.518,206.400 119.817 C 206.400 118.397,213.766 119.346,219.139 121.458 C 222.581 122.812,222.625 122.428,219.231 120.644 C 213.520 117.643,206.542 116.822,200.403 118.428 M155.746 125.800 C 155.747 128.000,155.814 128.849,155.895 127.687 C 155.976 126.524,155.976 124.724,155.893 123.687 C 155.811 122.649,155.745 123.600,155.746 125.800 M307.701 128.600 C 307.705 129.480,307.787 129.793,307.883 129.295 C 307.979 128.798,307.975 128.078,307.875 127.695 C 307.775 127.313,307.696 127.720,307.701 128.600 M261.400 131.308 C 262.060 131.794,263.002 132.587,263.492 133.070 C 263.983 133.553,264.466 133.817,264.565 133.656 C 264.664 133.496,266.729 134.325,269.154 135.500 C 277.988 139.780,284.554 141.543,292.800 141.848 C 296.956 142.002,298.430 141.943,298.000 141.638 C 297.670 141.404,296.756 141.209,295.970 141.206 C 289.242 141.177,271.422 136.013,263.449 131.782 C 260.483 130.208,259.640 130.013,261.400 131.308 M263.744 140.400 C 263.744 142.490,263.812 143.345,263.894 142.300 C 263.976 141.255,263.976 139.545,263.894 138.500 C 263.812 137.455,263.744 138.310,263.744 140.400 M282.844 144.044 C 282.598 144.751,282.466 145.400,282.552 145.485 C 282.638 145.571,282.909 145.062,283.156 144.356 C 283.402 143.649,283.534 143.000,283.448 142.915 C 283.362 142.829,283.091 143.338,282.844 144.044 M199.400 144.250 C 198.681 144.862,198.534 145.105,199.033 144.857 C 199.766 144.493,201.141 143.176,200.749 143.214 C 200.667 143.222,200.060 143.688,199.400 144.250 M279.078 150.613 C 278.460 151.156,278.114 151.600,278.308 151.600 C 278.502 151.600,279.083 151.150,279.600 150.600 C 280.795 149.328,280.531 149.334,279.078 150.613 M246.183 151.095 C 246.614 151.609,247.085 152.877,247.230 153.914 L 247.493 155.800 247.547 154.106 C 247.589 152.756,247.377 152.184,246.500 151.287 C 245.895 150.668,245.752 150.582,246.183 151.095 M273.300 151.076 C 273.685 151.176,274.315 151.176,274.700 151.076 C 275.085 150.975,274.770 150.893,274.000 150.893 C 273.230 150.893,272.915 150.975,273.300 151.076 M241.900 158.682 C 242.395 158.778,243.205 158.778,243.700 158.682 C 244.195 158.587,243.790 158.509,242.800 158.509 C 241.810 158.509,241.405 158.587,241.900 158.682 M217.281 166.459 C 217.534 167.185,217.814 167.557,217.904 167.287 C 217.995 167.016,218.261 166.914,218.496 167.059 C 218.751 167.217,218.807 167.134,218.634 166.855 C 218.475 166.598,218.165 166.498,217.946 166.634 C 217.725 166.770,217.603 166.568,217.673 166.182 C 217.743 165.797,217.580 165.406,217.310 165.312 C 216.929 165.178,216.922 165.431,217.281 166.459 M176.000 168.200 C 176.746 168.970,177.447 169.600,177.557 169.600 C 177.667 169.600,177.146 168.970,176.400 168.200 C 175.654 167.430,174.953 166.800,174.843 166.800 C 174.733 166.800,175.254 167.430,176.000 168.200 M255.876 170.581 C 255.557 170.900,255.184 171.080,255.048 170.981 C 254.911 170.881,254.894 170.924,255.008 171.075 C 255.123 171.226,254.539 172.081,253.710 172.975 C 252.882 173.869,253.238 173.616,254.502 172.414 C 255.766 171.211,256.800 170.176,256.800 170.114 C 256.800 169.846,256.417 170.040,255.876 170.581 M288.185 174.500 L 286.200 176.600 288.300 174.615 C 290.251 172.771,290.583 172.400,290.285 172.400 C 290.222 172.400,289.277 173.345,288.185 174.500 M238.291 175.889 C 239.001 175.977,240.261 175.979,241.091 175.892 C 241.921 175.805,241.340 175.733,239.800 175.731 C 238.260 175.729,237.581 175.800,238.291 175.889 M131.200 187.793 C 129.435 188.241,129.463 188.249,132.707 188.227 C 134.526 188.215,135.786 188.145,135.507 188.071 C 135.228 187.997,134.550 187.802,134.000 187.637 C 133.450 187.472,132.190 187.543,131.200 187.793 M137.797 189.800 C 138.126 190.460,138.397 191.810,138.398 192.800 C 138.401 194.320,139.286 207.173,140.269 219.954 C 140.483 222.740,140.431 223.277,139.963 223.121 C 139.653 223.018,139.378 222.723,139.350 222.467 C 139.252 221.554,139.194 221.507,138.683 221.931 C 137.842 222.629,132.953 219.380,133.625 218.569 C 134.427 217.603,133.435 216.864,132.487 217.721 C 131.817 218.328,131.678 218.330,130.852 217.751 C 129.413 216.744,129.319 217.506,130.723 218.788 C 132.127 220.071,132.315 220.704,131.397 221.057 C 130.752 221.304,128.812 220.230,128.276 219.329 C 127.958 218.795,127.759 218.857,125.245 220.288 C 125.086 220.378,129.910 225.200,130.159 225.200 C 131.146 225.200,140.694 232.281,141.111 233.323 L 141.622 234.600 141.405 233.400 C 141.286 232.740,141.073 231.120,140.932 229.800 C 140.754 228.131,140.451 227.241,139.938 226.877 C 138.963 226.187,138.934 224.638,139.900 224.888 C 140.918 225.151,140.910 223.942,139.785 206.709 C 139.243 198.410,138.800 191.365,138.800 191.054 C 138.800 190.743,138.440 190.064,137.999 189.544 L 137.199 188.600 137.797 189.800 M235.305 190.687 C 235.914 190.779,236.814 190.777,237.305 190.682 C 237.797 190.587,237.300 190.511,236.200 190.514 C 235.100 190.517,234.697 190.595,235.305 190.687 M244.500 190.687 C 245.105 190.778,246.095 190.778,246.700 190.687 C 247.305 190.595,246.810 190.520,245.600 190.520 C 244.390 190.520,243.895 190.595,244.500 190.687 M130.865 195.951 C 130.044 196.472,130.455 198.179,131.435 198.319 C 132.719 198.503,133.311 197.536,132.566 196.473 C 131.896 195.516,131.664 195.445,130.865 195.951 M133.600 197.531 C 133.600 198.862,134.569 199.489,135.470 198.742 C 136.410 197.961,135.954 196.618,134.700 196.473 C 133.719 196.361,133.600 196.475,133.600 197.531 M126.484 197.400 C 126.640 198.385,127.739 198.461,127.924 197.500 C 127.998 197.115,127.865 196.800,127.629 196.800 C 127.393 196.800,127.197 197.025,127.194 197.300 C 127.190 197.638,127.053 197.605,126.772 197.200 C 126.430 196.705,126.379 196.740,126.484 197.400 M216.519 199.975 C 216.995 201.281,217.491 202.176,217.623 201.963 C 217.754 201.751,218.079 202.056,218.346 202.640 C 218.612 203.225,218.905 203.629,218.996 203.537 C 219.088 203.446,218.631 202.255,217.981 200.891 C 217.332 199.527,216.800 198.229,216.800 198.006 C 216.800 197.782,216.542 197.600,216.227 197.600 C 215.763 197.600,215.818 198.050,216.519 199.975 M240.832 200.467 C 240.849 201.420,240.961 201.955,241.080 201.655 C 241.263 201.194,241.353 201.194,241.660 201.655 C 241.901 202.017,241.985 201.674,241.911 200.631 C 241.752 198.380,240.791 198.233,240.832 200.467 M221.954 208.336 C 222.399 208.960,223.079 209.725,223.465 210.036 C 223.852 210.346,223.560 209.835,222.817 208.900 C 221.291 206.980,220.725 206.610,221.954 208.336 M110.772 208.900 C 110.342 209.877,109.554 210.521,107.600 211.491 C 104.491 213.034,104.697 213.190,108.005 211.798 C 109.315 211.247,110.608 210.842,110.878 210.898 C 111.197 210.964,111.398 210.401,111.449 209.300 C 111.545 207.258,111.505 207.235,110.772 208.900 M224.200 212.400 C 225.059 213.280,225.852 214.000,225.962 214.000 C 226.072 214.000,225.459 213.280,224.600 212.400 C 223.741 211.520,222.948 210.800,222.838 210.800 C 222.728 210.800,223.341 211.520,224.200 212.400 M224.400 211.325 C 224.400 211.394,224.985 211.979,225.700 212.625 L 227.000 213.800 225.825 212.500 C 224.730 211.288,224.400 211.016,224.400 211.325 M240.375 212.046 C 240.033 212.686,240.037 212.854,240.391 212.736 C 240.649 212.650,240.831 212.425,240.796 212.235 C 240.761 212.045,240.972 211.737,241.266 211.551 C 241.644 211.311,241.659 211.210,241.314 211.206 C 241.047 211.203,240.624 211.581,240.375 212.046 M238.995 212.808 C 238.765 213.180,239.040 213.352,239.700 213.247 C 239.865 213.221,240.000 213.391,240.000 213.625 C 240.000 213.885,239.463 213.964,238.614 213.829 C 237.500 213.652,237.273 213.725,237.456 214.202 C 237.581 214.528,237.885 214.671,238.132 214.518 C 238.378 214.366,239.019 214.232,239.555 214.221 C 240.091 214.209,240.591 214.019,240.666 213.797 C 240.857 213.230,239.303 212.310,238.995 212.808 M137.314 216.142 C 137.532 216.795,138.400 216.922,138.400 216.300 C 138.400 215.988,138.125 215.733,137.789 215.733 C 137.453 215.733,137.239 215.917,137.314 216.142 M232.004 216.595 C 230.982 217.826,232.720 219.451,233.850 218.321 C 234.367 217.804,234.366 217.733,233.837 217.733 C 233.506 217.733,233.339 217.901,233.465 218.105 C 233.591 218.310,233.360 218.413,232.952 218.334 C 232.543 218.255,232.152 217.833,232.083 217.395 C 231.980 216.747,232.032 216.710,232.361 217.195 C 232.686 217.674,232.751 217.615,232.697 216.895 C 232.617 215.834,232.631 215.840,232.004 216.595 M234.000 216.837 C 234.000 216.982,234.450 217.100,235.000 217.100 C 235.550 217.100,236.000 216.945,236.000 216.754 C 236.000 216.564,235.550 216.446,235.000 216.492 C 234.450 216.537,234.000 216.693,234.000 216.837 M136.438 222.286 C 138.073 223.252,137.991 224.400,136.289 224.400 C 134.687 224.400,133.200 223.426,133.200 222.377 C 133.200 221.375,134.818 221.329,136.438 222.286 M127.854 230.202 C 127.715 230.565,127.856 230.800,128.213 230.800 C 128.860 230.800,129.007 230.175,128.442 229.826 C 128.245 229.704,127.981 229.874,127.854 230.202 M155.996 231.330 C 156.468 231.954,156.464 232.114,155.974 232.424 C 155.614 232.652,155.577 232.790,155.876 232.794 C 156.741 232.805,156.907 231.935,156.169 231.262 C 155.487 230.639,155.476 230.643,155.996 231.330 M247.049 232.184 C 247.230 232.654,247.105 232.749,246.545 232.567 C 245.928 232.366,245.904 232.399,246.400 232.756 C 246.730 232.994,247.135 233.191,247.300 233.194 C 247.742 233.203,247.665 232.088,247.205 231.803 C 246.977 231.662,246.911 231.824,247.049 232.184 M173.789 236.018 C 173.494 236.496,174.286 237.600,174.925 237.600 C 175.161 237.600,175.004 237.333,174.576 237.008 C 173.904 236.495,173.881 236.361,174.400 236.014 C 174.764 235.770,174.813 235.610,174.524 235.606 C 174.262 235.603,173.931 235.788,173.789 236.018 M129.200 237.600 C 129.200 237.820,129.470 238.000,129.800 238.000 C 130.130 238.000,130.400 237.820,130.400 237.600 C 130.400 237.380,130.130 237.200,129.800 237.200 C 129.470 237.200,129.200 237.380,129.200 237.600 M141.709 238.800 C 141.709 239.790,141.787 240.195,141.882 239.700 C 141.978 239.205,141.978 238.395,141.882 237.900 C 141.787 237.405,141.709 237.810,141.709 238.800 M134.000 242.200 C 134.000 242.530,134.180 242.800,134.400 242.800 C 134.620 242.800,134.800 242.530,134.800 242.200 C 134.800 241.870,134.620 241.600,134.400 241.600 C 134.180 241.600,134.000 241.870,134.000 242.200 M142.000 243.907 C 142.000 245.631,135.567 248.394,131.543 248.399 C 131.181 248.400,130.790 248.649,130.673 248.954 C 130.442 249.557,135.569 248.618,139.176 247.398 C 141.971 246.452,143.756 244.238,142.400 243.400 C 142.180 243.264,142.000 243.492,142.000 243.907 M134.800 245.000 C 134.800 245.373,135.178 245.600,135.800 245.600 C 136.422 245.600,136.800 245.373,136.800 245.000 C 136.800 244.627,136.422 244.400,135.800 244.400 C 135.178 244.400,134.800 244.627,134.800 245.000 M198.493 315.200 C 198.493 315.970,198.575 316.285,198.676 315.900 C 198.776 315.515,198.776 314.885,198.676 314.500 C 198.575 314.115,198.493 314.430,198.493 315.200 M274.109 320.400 C 274.109 321.390,274.187 321.795,274.282 321.300 C 274.378 320.805,274.378 319.995,274.282 319.500 C 274.187 319.005,274.109 319.410,274.109 320.400 M274.514 325.800 C 274.517 326.900,274.595 327.303,274.687 326.695 C 274.779 326.086,274.777 325.186,274.682 324.695 C 274.587 324.203,274.511 324.700,274.514 325.800 M217.693 326.400 C 217.693 327.170,217.775 327.485,217.876 327.100 C 217.976 326.715,217.976 326.085,217.876 325.700 C 217.775 325.315,217.693 325.630,217.693 326.400 M198.901 327.400 C 198.905 328.280,198.987 328.593,199.083 328.095 C 199.179 327.598,199.175 326.878,199.075 326.495 C 198.975 326.113,198.896 326.520,198.901 327.400 M269.293 327.200 C 269.293 327.970,269.375 328.285,269.476 327.900 C 269.576 327.515,269.576 326.885,269.476 326.500 C 269.375 326.115,269.293 326.430,269.293 327.200 M223.701 335.400 C 223.705 336.280,223.787 336.593,223.883 336.095 C 223.979 335.598,223.975 334.878,223.875 334.495 C 223.775 334.113,223.696 334.520,223.701 335.400 M244.114 335.800 C 244.117 336.900,244.195 337.303,244.287 336.695 C 244.379 336.086,244.377 335.186,244.282 334.695 C 244.187 334.203,244.111 334.700,244.114 335.800 M180.500 336.276 C 180.885 336.376,181.515 336.376,181.900 336.276 C 182.285 336.175,181.970 336.093,181.200 336.093 C 180.430 336.093,180.115 336.175,180.500 336.276 M286.500 336.276 C 286.885 336.376,287.515 336.376,287.900 336.276 C 288.285 336.175,287.970 336.093,287.200 336.093 C 286.430 336.093,286.115 336.175,286.500 336.276 M181.905 341.083 C 182.402 341.179,183.122 341.175,183.505 341.075 C 183.887 340.975,183.480 340.896,182.600 340.901 C 181.720 340.905,181.407 340.987,181.905 341.083 M285.105 341.083 C 285.602 341.179,286.322 341.175,286.705 341.075 C 287.087 340.975,286.680 340.896,285.800 340.901 C 284.920 340.905,284.607 340.987,285.105 341.083 " stroke="none" fill="#9b8d87" fill-rule="evenodd"></path><path id="path6" d="M194.500 79.476 C 194.885 79.576,195.515 79.576,195.900 79.476 C 196.285 79.375,195.970 79.293,195.200 79.293 C 194.430 79.293,194.115 79.375,194.500 79.476 M201.700 79.476 C 202.085 79.576,202.715 79.576,203.100 79.476 C 203.485 79.375,203.170 79.293,202.400 79.293 C 201.630 79.293,201.315 79.375,201.700 79.476 M260.900 94.676 C 261.285 94.776,261.915 94.776,262.300 94.676 C 262.685 94.575,262.370 94.493,261.600 94.493 C 260.830 94.493,260.515 94.575,260.900 94.676 M264.100 95.076 C 264.485 95.176,265.115 95.176,265.500 95.076 C 265.885 94.975,265.570 94.893,264.800 94.893 C 264.030 94.893,263.715 94.975,264.100 95.076 M155.348 125.600 C 155.348 127.910,155.414 128.855,155.495 127.700 C 155.576 126.545,155.576 124.655,155.495 123.500 C 155.414 122.345,155.348 123.290,155.348 125.600 M170.000 162.925 C 170.000 162.994,170.585 163.579,171.300 164.225 L 172.600 165.400 171.425 164.100 C 170.330 162.888,170.000 162.616,170.000 162.925 M288.191 174.900 L 285.000 178.200 288.300 175.009 C 290.115 173.255,291.600 171.770,291.600 171.709 C 291.600 171.418,291.154 171.835,288.191 174.900 M235.100 191.082 C 235.595 191.178,236.405 191.178,236.900 191.082 C 237.395 190.987,236.990 190.909,236.000 190.909 C 235.010 190.909,234.605 190.987,235.100 191.082 M244.905 191.087 C 245.514 191.179,246.414 191.177,246.905 191.082 C 247.397 190.987,246.900 190.911,245.800 190.914 C 244.700 190.917,244.297 190.995,244.905 191.087 M240.493 201.200 C 240.493 201.970,240.575 202.285,240.676 201.900 C 240.776 201.515,240.776 200.885,240.676 200.500 C 240.575 200.115,240.493 200.430,240.493 201.200 M118.450 201.082 C 108.150 204.721,112.622 221.225,123.394 219.328 C 125.415 218.972,125.509 218.856,124.955 217.400 C 124.690 216.705,124.734 216.668,125.289 217.119 C 125.782 217.520,125.997 217.529,126.226 217.158 C 126.415 216.852,126.355 216.781,126.061 216.962 C 125.612 217.240,124.936 215.995,124.563 214.200 C 123.954 211.273,123.182 205.552,123.358 205.267 C 123.475 205.079,122.632 205.090,121.485 205.292 C 118.768 205.771,118.743 205.772,117.756 205.454 C 116.971 205.201,116.893 205.367,116.641 207.828 C 116.294 211.214,117.069 212.797,119.337 213.333 C 120.412 213.588,120.806 213.876,120.717 214.345 C 120.569 215.120,118.895 215.455,118.274 214.834 C 117.489 214.049,117.059 214.381,117.800 215.200 C 118.198 215.640,119.017 216.000,119.619 216.000 C 120.249 216.000,120.818 216.269,120.957 216.633 C 122.009 219.372,117.382 217.706,115.093 214.520 C 111.572 209.619,115.353 201.600,121.184 201.600 C 121.998 201.600,122.400 201.402,122.400 201.000 C 122.400 200.227,120.775 200.260,118.450 201.082 M245.397 214.218 C 243.220 216.992,242.396 220.125,243.472 221.540 C 244.181 222.472,244.117 223.495,243.322 223.940 C 242.817 224.223,242.600 225.020,242.475 227.060 C 242.383 228.567,242.396 229.710,242.504 229.600 C 242.704 229.397,250.580 219.891,251.503 218.739 C 251.924 218.213,251.688 217.625,250.042 215.104 C 247.508 211.221,247.718 211.261,245.397 214.218 M123.083 216.895 C 122.987 217.393,122.905 217.080,122.901 216.200 C 122.896 215.320,122.975 214.913,123.075 215.295 C 123.175 215.678,123.179 216.398,123.083 216.895 M124.503 215.949 C 124.612 216.369,124.566 216.931,124.400 217.200 C 124.218 217.494,124.032 217.125,123.933 216.272 C 123.762 214.814,124.149 214.595,124.503 215.949 M122.142 216.800 C 122.323 217.785,122.282 218.022,122.006 217.600 C 121.789 217.270,121.609 216.565,121.606 216.033 C 121.598 214.749,121.825 215.075,122.142 216.800 M249.107 216.321 C 249.287 216.860,245.310 221.746,244.541 221.930 C 244.242 222.001,243.880 221.753,243.736 221.378 C 243.441 220.608,245.075 219.097,245.887 219.390 C 246.155 219.486,246.484 219.388,246.617 219.173 C 246.750 218.957,246.644 218.830,246.380 218.890 C 246.116 218.951,245.809 218.750,245.698 218.444 C 245.574 218.104,245.671 217.997,245.948 218.168 C 246.210 218.330,246.400 218.185,246.400 217.824 C 246.400 217.481,246.691 217.200,247.047 217.200 C 247.494 217.200,247.630 216.956,247.486 216.409 C 247.258 215.534,248.817 215.450,249.107 216.321 M140.800 224.111 C 140.800 224.901,142.285 225.277,142.562 224.556 C 142.679 224.250,142.615 224.000,142.420 224.000 C 142.225 224.000,141.781 223.891,141.433 223.757 C 141.030 223.603,140.800 223.731,140.800 224.111 M233.658 227.400 C 234.240 228.060,235.635 230.018,236.758 231.751 C 237.881 233.485,238.800 234.705,238.800 234.464 C 238.800 233.693,235.324 228.644,233.938 227.400 L 232.600 226.200 233.658 227.400 M141.206 229.800 C 141.213 231.962,141.312 232.193,142.758 233.400 L 143.716 234.200 143.225 233.263 C 142.945 232.732,142.790 231.347,142.866 230.062 C 142.992 227.941,142.943 227.798,142.100 227.799 C 141.286 227.800,141.201 227.991,141.206 229.800 M198.114 315.000 C 198.117 316.100,198.195 316.503,198.287 315.895 C 198.379 315.286,198.377 314.386,198.282 313.895 C 198.187 313.403,198.111 313.900,198.114 315.000 M193.309 318.800 C 193.309 319.790,193.387 320.195,193.482 319.700 C 193.578 319.205,193.578 318.395,193.482 317.900 C 193.387 317.405,193.309 317.810,193.309 318.800 M198.554 324.800 C 198.554 327.550,198.618 328.675,198.696 327.300 C 198.774 325.925,198.774 323.675,198.696 322.300 C 198.618 320.925,198.554 322.050,198.554 324.800 M243.293 322.000 C 243.293 322.770,243.375 323.085,243.476 322.700 C 243.576 322.315,243.576 321.685,243.476 321.300 C 243.375 320.915,243.293 321.230,243.293 322.000 M248.524 327.000 C 248.526 328.320,248.601 328.812,248.690 328.093 C 248.779 327.374,248.777 326.294,248.686 325.693 C 248.595 325.092,248.522 325.680,248.524 327.000 M274.093 326.400 C 274.093 327.170,274.175 327.485,274.276 327.100 C 274.376 326.715,274.376 326.085,274.276 325.700 C 274.175 325.315,274.093 325.630,274.093 326.400 M223.309 332.400 C 223.309 333.390,223.387 333.795,223.482 333.300 C 223.578 332.805,223.578 331.995,223.482 331.500 C 223.387 331.005,223.309 331.410,223.309 332.400 M248.920 333.200 C 248.920 334.410,248.995 334.905,249.087 334.300 C 249.178 333.695,249.178 332.705,249.087 332.100 C 248.995 331.495,248.920 331.990,248.920 333.200 M244.509 335.600 C 244.509 336.590,244.587 336.995,244.682 336.500 C 244.778 336.005,244.778 335.195,244.682 334.700 C 244.587 334.205,244.509 334.610,244.509 335.600 M181.905 340.683 C 182.402 340.779,183.122 340.775,183.505 340.675 C 183.887 340.575,183.480 340.496,182.600 340.501 C 181.720 340.505,181.407 340.587,181.905 340.683 M285.105 340.683 C 285.602 340.779,286.322 340.775,286.705 340.675 C 287.087 340.575,286.680 340.496,285.800 340.501 C 284.920 340.505,284.607 340.587,285.105 340.683 M219.781 343.700 L 218.200 345.400 219.900 343.819 C 220.835 342.949,221.600 342.184,221.600 342.119 C 221.600 341.816,221.252 342.119,219.781 343.700 " stroke="none" fill="#333738" fill-rule="evenodd"></path><path id="path7" d="M197.500 79.489 C 198.215 79.578,199.385 79.578,200.100 79.489 C 200.815 79.401,200.230 79.328,198.800 79.328 C 197.370 79.328,196.785 79.401,197.500 79.489 M247.895 211.446 C 247.606 211.913,249.481 214.253,249.849 213.884 C 250.005 213.728,249.913 213.600,249.643 213.600 C 249.373 213.600,249.239 213.460,249.345 213.289 C 249.451 213.118,249.217 212.553,248.826 212.034 C 248.435 211.516,248.016 211.251,247.895 211.446 M123.933 216.272 C 124.032 217.125,124.218 217.494,124.400 217.200 C 124.719 216.683,124.488 215.302,124.035 215.022 C 123.888 214.931,123.842 215.493,123.933 216.272 M121.606 216.033 C 121.609 216.565,121.789 217.270,122.006 217.600 C 122.282 218.022,122.323 217.785,122.142 216.800 C 121.825 215.075,121.598 214.749,121.606 216.033 M247.486 216.409 C 247.630 216.956,247.494 217.200,247.047 217.200 C 246.691 217.200,246.445 217.425,246.500 217.700 C 246.555 217.975,246.330 218.152,246.000 218.094 C 245.565 218.017,245.603 218.147,246.140 218.568 C 246.547 218.886,246.756 219.347,246.604 219.593 C 246.422 219.888,246.169 219.906,245.857 219.648 C 245.156 219.066,243.399 220.499,243.736 221.378 C 243.880 221.753,244.242 222.001,244.541 221.930 C 245.316 221.744,249.334 216.801,248.715 216.794 C 248.352 216.790,248.377 216.673,248.800 216.400 C 249.130 216.187,249.310 215.996,249.200 215.976 C 249.090 215.957,248.613 215.868,248.140 215.779 C 247.447 215.649,247.320 215.772,247.486 216.409 M251.119 216.797 C 251.768 217.939,252.400 218.372,252.400 217.675 C 252.400 217.339,250.895 215.600,250.603 215.600 C 250.512 215.600,250.744 216.139,251.119 216.797 M239.042 221.667 C 235.803 225.530,234.402 227.489,234.645 227.819 C 234.840 228.086,235.862 229.602,236.916 231.189 L 238.833 234.075 240.516 232.167 C 242.096 230.378,242.214 230.075,242.423 227.289 C 242.588 225.074,242.817 224.222,243.323 223.939 C 244.061 223.526,244.237 222.194,243.605 221.803 C 243.370 221.658,243.316 221.837,243.473 222.245 C 243.635 222.669,243.578 222.834,243.322 222.675 C 242.809 222.358,243.118 217.209,243.693 216.500 C 243.916 216.225,244.030 216.000,243.947 216.000 C 243.864 216.000,241.657 218.550,239.042 221.667 M241.575 225.746 C 241.199 226.093,241.158 226.068,241.403 225.638 C 241.618 225.262,241.571 225.171,241.262 225.362 C 241.008 225.519,240.800 225.932,240.800 226.280 C 240.800 226.628,240.260 227.429,239.600 228.060 C 238.940 228.691,238.400 229.424,238.400 229.689 C 238.400 229.995,238.159 229.930,237.743 229.514 C 237.133 228.905,237.133 228.810,237.743 228.200 C 238.104 227.839,238.400 227.736,238.400 227.971 C 238.400 228.207,238.574 228.400,238.787 228.400 C 239.001 228.400,239.071 228.130,238.945 227.800 C 238.818 227.470,238.869 227.196,239.057 227.191 C 239.246 227.186,239.940 226.374,240.600 225.386 C 241.622 223.855,241.820 223.715,241.934 224.441 C 242.007 224.909,241.846 225.497,241.575 225.746 " stroke="none" fill="#3c545c" fill-rule="evenodd"></path><path id="path8" d="M139.393 184.555 C 138.926 185.268,137.876 185.851,135.941 186.475 L 133.160 187.370 135.276 188.060 C 137.427 188.761,138.798 189.960,138.803 191.144 C 138.804 191.505,139.253 198.460,139.799 206.600 C 140.345 214.740,140.793 221.875,140.796 222.457 C 140.799 223.261,141.050 223.576,141.847 223.776 C 143.239 224.125,143.186 224.362,142.779 219.598 C 142.582 217.289,141.978 208.316,141.436 199.659 C 140.382 182.824,140.407 183.007,139.393 184.555 M141.812 237.828 C 141.967 240.673,142.252 243.171,142.447 243.380 C 144.249 245.318,139.681 247.916,132.500 249.037 C 130.755 249.309,130.286 250.170,131.144 251.523 C 131.638 252.302,140.319 250.090,143.736 248.315 C 145.240 247.534,144.112 234.370,142.446 233.264 L 141.530 232.656 141.812 237.828 M198.501 318.200 C 198.505 319.080,198.587 319.393,198.683 318.895 C 198.779 318.398,198.775 317.678,198.675 317.295 C 198.575 316.913,198.496 317.320,198.501 318.200 M248.093 318.000 C 248.093 318.770,248.175 319.085,248.276 318.700 C 248.376 318.315,248.376 317.685,248.276 317.300 C 248.175 316.915,248.093 317.230,248.093 318.000 M193.714 327.000 C 193.717 328.100,193.795 328.503,193.887 327.895 C 193.979 327.286,193.977 326.386,193.882 325.895 C 193.787 325.403,193.711 325.900,193.714 327.000 M223.301 329.400 C 223.305 330.280,223.387 330.593,223.483 330.095 C 223.579 329.598,223.575 328.878,223.475 328.495 C 223.375 328.113,223.296 328.520,223.301 329.400 " stroke="none" fill="#3c5c74" fill-rule="evenodd"></path></g></svg>