<svg width="528.473" height="74.25" viewBox="0 0 528.473 74.25" xmlns="http://www.w3.org/2000/svg"><g id="svgGroup" stroke-linecap="round" fill-rule="evenodd" font-size="9pt" stroke="#000" stroke-width="0.25mm" fill="none" style="stroke:#000;stroke-width:0.25mm;fill:none"><path d="M 160.918 57.063 L 160.918 53.969 L 179.566 53.969 A 21.086 21.086 0 0 0 190.137 51.219 A 20.802 20.802 0 0 0 197.893 43.57 Q 200.793 38.672 200.793 32.742 A 18.974 18.974 0 0 0 197.914 22.666 A 21.301 21.301 0 0 0 190.115 15.168 A 21.023 21.023 0 0 0 179.566 12.375 L 140.637 12.375 L 140.637 71.156 L 137.543 71.156 L 137.543 9.281 L 179.566 9.281 Q 184.422 9.281 188.912 11.193 A 25.883 25.883 0 0 1 195.125 14.897 A 23.73 23.73 0 0 1 196.668 16.264 A 24.355 24.355 0 0 1 201.91 23.762 A 21.44 21.44 0 0 1 203.887 32.742 A 27.747 27.747 0 0 1 203.041 39.732 A 22.467 22.467 0 0 1 200.449 45.869 Q 197.012 51.477 191.211 54.399 L 197.699 71.156 L 194.391 71.156 L 188.246 55.645 A 29.589 29.589 0 0 1 187.157 55.983 Q 186.596 56.146 185.966 56.309 A 51.563 51.563 0 0 1 185.539 56.418 L 191.34 71.156 L 188.031 71.156 L 182.359 56.934 A 28.078 28.078 0 0 1 180.289 57.055 A 32.038 32.038 0 0 1 179.566 57.063 L 185.023 71.156 L 181.758 71.156 L 176.344 57.063 L 173.551 57.063 L 178.75 71.156 L 175.484 71.156 L 170.242 57.063 L 160.918 57.063 Z M 86.754 52.938 L 86.754 49.844 L 104.715 49.844 A 21.91 21.91 0 0 0 113.523 48.018 Q 117.734 46.191 120.85 43.076 Q 123.965 39.961 125.813 35.514 Q 127.66 31.066 127.66 26.039 A 21.887 21.887 0 0 0 124.523 14.717 Q 121.387 9.41 116.08 6.252 Q 110.773 3.094 104.715 3.094 L 65.785 3.094 L 65.785 71.156 L 62.691 71.156 L 62.691 0 L 104.715 0 A 24.741 24.741 0 0 1 117.605 3.588 A 27.115 27.115 0 0 1 127.188 13.191 A 24.777 24.777 0 0 1 130.754 26.039 A 30.884 30.884 0 0 1 129.847 33.631 A 27.087 27.087 0 0 1 128.648 37.275 A 26.483 26.483 0 0 1 125.818 42.501 A 22.166 22.166 0 0 1 122.977 45.805 A 25.499 25.499 0 0 1 114.684 51.068 Q 109.957 52.938 104.715 52.938 L 86.754 52.938 Z M 86.754 46.75 L 86.754 43.656 L 104.715 43.656 Q 109.184 43.656 112.986 41.486 A 16.211 16.211 0 0 0 118.679 35.983 A 19.43 19.43 0 0 0 119.131 35.234 A 17.805 17.805 0 0 0 121.435 27.321 A 21.515 21.515 0 0 0 121.473 26.039 A 15.855 15.855 0 0 0 117.191 15.163 A 21.071 21.071 0 0 0 116.424 14.352 A 17.809 17.809 0 0 0 111.517 10.798 A 15.521 15.521 0 0 0 104.715 9.281 L 71.973 9.281 L 71.973 71.156 L 68.879 71.156 L 68.879 6.188 L 104.715 6.188 Q 109.914 6.188 114.512 8.938 Q 119.109 11.688 121.838 16.285 A 18.808 18.808 0 0 1 124.566 26.039 A 21.424 21.424 0 0 1 123.02 34.213 A 20.495 20.495 0 0 1 121.816 36.674 A 20.098 20.098 0 0 1 116.17 43.041 A 19.591 19.591 0 0 1 114.533 44.107 Q 110 46.75 104.715 46.75 L 86.754 46.75 Z M 160.918 50.875 L 160.918 47.781 L 179.566 47.781 Q 185.754 47.781 190.18 43.57 A 14.057 14.057 0 0 0 194.576 33.812 A 18.94 18.94 0 0 0 194.605 32.742 Q 194.605 27.113 190.094 22.838 A 14.824 14.824 0 0 0 179.566 18.563 L 146.824 18.563 L 146.824 71.156 L 143.73 71.156 L 143.73 15.469 L 179.566 15.469 Q 186.871 15.469 192.285 20.647 A 18.309 18.309 0 0 1 195.986 25.51 A 15.619 15.619 0 0 1 197.699 32.742 A 18.362 18.362 0 0 1 196.32 39.944 A 17.352 17.352 0 0 1 192.35 45.676 A 17.7 17.7 0 0 1 179.566 50.875 L 160.918 50.875 Z M 451.816 35.535 L 446.918 35.535 A 30.955 30.955 0 0 1 442.654 35.268 Q 434.371 34.109 434.371 27.93 A 5.584 5.584 0 0 1 436.127 23.863 Q 436.876 23.113 437.947 22.463 A 12.899 12.899 0 0 1 438.26 22.279 A 13.698 13.698 0 0 1 441.311 21.042 Q 444.761 20.066 449.926 20.066 A 41.418 41.418 0 0 1 456.445 20.562 A 34.819 34.819 0 0 1 460.066 21.334 A 26.723 26.723 0 0 1 463.852 22.653 Q 465.875 23.543 467.474 24.719 A 16.168 16.168 0 0 1 467.801 24.965 L 465.352 26.856 A 18.26 18.26 0 0 0 460.328 24.497 Q 455.974 23.16 449.926 23.16 A 50.719 50.719 0 0 0 446.918 23.243 Q 443.758 23.432 441.698 24.047 A 10.31 10.31 0 0 0 440.473 24.492 A 8.631 8.631 0 0 0 439.228 25.159 Q 438.622 25.557 438.224 26.009 A 2.837 2.837 0 0 0 437.465 27.93 Q 437.465 30.379 439.57 31.41 A 7.157 7.157 0 0 0 440.956 31.897 Q 443.109 32.441 446.918 32.441 L 451.816 32.441 A 42.21 42.21 0 0 1 458.909 32.999 Q 465.84 34.183 470.25 37.877 A 17.685 17.685 0 0 1 476.681 50.746 A 24.202 24.202 0 0 1 476.738 52.422 Q 476.738 56.59 474.891 60.242 A 19.122 19.122 0 0 1 470.474 65.914 A 22.478 22.478 0 0 1 469.584 66.666 Q 466.341 69.264 461.418 70.843 A 36.934 36.934 0 0 1 460.754 71.049 A 37.652 37.652 0 0 1 453.952 72.394 A 48.094 48.094 0 0 1 448.809 72.66 A 48.41 48.41 0 0 1 437.208 71.305 A 43.44 43.44 0 0 1 433.297 70.147 A 37.382 37.382 0 0 1 426.399 66.968 A 29.862 29.862 0 0 1 421.266 63.121 L 423.758 61.274 A 27.672 27.672 0 0 0 430.092 65.518 A 35.766 35.766 0 0 0 434.715 67.397 A 43.743 43.743 0 0 0 446.367 69.508 A 50.569 50.569 0 0 0 448.809 69.566 Q 457 69.566 462.706 67.125 A 21.335 21.335 0 0 0 467.027 64.668 A 18.244 18.244 0 0 0 470.921 60.842 A 13.856 13.856 0 0 0 473.645 52.422 A 17.142 17.142 0 0 0 472.71 46.638 A 14.557 14.557 0 0 0 467.973 40.09 Q 463.464 36.469 455.914 35.727 A 41.907 41.907 0 0 0 451.816 35.535 Z M 451.816 47.91 L 446.918 47.91 A 42.21 42.21 0 0 1 439.825 47.353 Q 432.894 46.169 428.484 42.475 A 17.685 17.685 0 0 1 422.053 29.605 A 24.202 24.202 0 0 1 421.996 27.93 Q 421.996 23.762 423.844 20.109 A 19.122 19.122 0 0 1 428.26 14.437 A 22.478 22.478 0 0 1 429.15 13.686 Q 432.393 11.087 437.317 9.509 A 36.934 36.934 0 0 1 437.98 9.303 A 37.652 37.652 0 0 1 444.783 7.957 A 48.094 48.094 0 0 1 449.926 7.691 A 48.41 48.41 0 0 1 461.527 9.047 A 43.44 43.44 0 0 1 465.437 10.205 A 37.382 37.382 0 0 1 472.335 13.384 A 29.862 29.862 0 0 1 477.469 17.231 L 474.977 19.078 A 27.672 27.672 0 0 0 468.642 14.833 A 35.766 35.766 0 0 0 464.02 12.955 A 43.743 43.743 0 0 0 452.368 10.844 A 50.569 50.569 0 0 0 449.926 10.785 Q 441.734 10.785 436.028 13.227 A 21.335 21.335 0 0 0 431.707 15.684 A 18.244 18.244 0 0 0 427.814 19.509 A 13.856 13.856 0 0 0 425.09 27.93 A 17.142 17.142 0 0 0 426.025 33.714 A 14.557 14.557 0 0 0 430.762 40.262 Q 435.27 43.882 442.82 44.625 A 41.907 41.907 0 0 0 446.918 44.816 L 451.645 44.816 Q 459.939 44.816 462.824 48.051 A 6.321 6.321 0 0 1 464.363 52.422 A 5.584 5.584 0 0 1 462.608 56.488 Q 461.858 57.239 460.788 57.888 A 12.899 12.899 0 0 1 460.475 58.072 A 13.698 13.698 0 0 1 457.423 59.309 Q 453.973 60.285 448.809 60.285 A 41.418 41.418 0 0 1 442.289 59.79 A 34.819 34.819 0 0 1 438.668 59.018 A 26.723 26.723 0 0 1 434.882 57.699 Q 432.859 56.808 431.26 55.633 A 16.168 16.168 0 0 1 430.934 55.387 L 433.383 53.496 A 18.26 18.26 0 0 0 438.406 55.854 Q 442.76 57.191 448.809 57.191 A 50.719 50.719 0 0 0 451.816 57.108 Q 454.977 56.92 457.037 56.305 A 10.31 10.31 0 0 0 458.262 55.859 A 8.631 8.631 0 0 0 459.506 55.193 Q 460.112 54.794 460.51 54.342 A 2.837 2.837 0 0 0 461.27 52.422 Q 461.27 49.973 459.164 48.941 A 7.157 7.157 0 0 0 457.778 48.455 Q 455.625 47.91 451.816 47.91 Z M 451.816 41.723 L 446.918 41.723 A 35.655 35.655 0 0 1 441.685 41.364 Q 439.031 40.969 436.87 40.141 A 15.503 15.503 0 0 1 433.039 38.049 A 11.745 11.745 0 0 1 428.259 29.498 A 15.831 15.831 0 0 1 428.184 27.93 A 11.239 11.239 0 0 1 431.884 19.542 A 17.191 17.191 0 0 1 433.898 17.897 Q 438.271 14.823 445.335 14.101 A 45.209 45.209 0 0 1 449.926 13.879 A 44.128 44.128 0 0 1 458.942 14.773 A 38.513 38.513 0 0 1 462.752 15.77 A 31.971 31.971 0 0 1 468.048 17.964 A 24.376 24.376 0 0 1 472.656 21.098 L 470.25 23.031 A 22.083 22.083 0 0 0 465.751 20.217 A 30.158 30.158 0 0 0 461.398 18.563 A 38.449 38.449 0 0 0 452.947 17.072 A 45.251 45.251 0 0 0 449.926 16.973 A 42.67 42.67 0 0 0 444.798 17.26 Q 442.267 17.567 440.191 18.203 A 16.431 16.431 0 0 0 436.068 20.066 A 12.726 12.726 0 0 0 433.542 22.164 A 8.303 8.303 0 0 0 431.277 27.93 A 10.746 10.746 0 0 0 431.83 31.462 A 8.829 8.829 0 0 0 435.209 35.857 A 12.867 12.867 0 0 0 438.699 37.546 Q 441.952 38.595 446.616 38.628 A 43.022 43.022 0 0 0 446.918 38.629 L 451.645 38.629 A 36.575 36.575 0 0 1 456.947 38.988 Q 462.321 39.777 465.674 42.303 A 11.733 11.733 0 0 1 470.475 50.854 A 15.762 15.762 0 0 1 470.551 52.422 A 11.239 11.239 0 0 1 466.85 60.81 A 17.191 17.191 0 0 1 464.836 62.455 Q 460.463 65.529 453.399 66.251 A 45.209 45.209 0 0 1 448.809 66.473 A 44.128 44.128 0 0 1 439.792 65.579 A 38.513 38.513 0 0 1 435.982 64.582 A 31.971 31.971 0 0 1 430.686 62.388 A 24.376 24.376 0 0 1 426.078 59.254 L 428.484 57.32 A 22.083 22.083 0 0 0 432.984 60.134 A 30.158 30.158 0 0 0 437.336 61.789 A 38.449 38.449 0 0 0 445.787 63.28 A 45.251 45.251 0 0 0 448.809 63.379 A 42.67 42.67 0 0 0 453.937 63.092 Q 456.467 62.785 458.543 62.149 A 16.431 16.431 0 0 0 462.666 60.285 A 12.726 12.726 0 0 0 465.193 58.188 A 8.303 8.303 0 0 0 467.457 52.422 A 10.746 10.746 0 0 0 466.904 48.89 A 8.829 8.829 0 0 0 463.525 44.494 A 12.867 12.867 0 0 0 460.036 42.805 Q 456.782 41.757 452.119 41.724 A 43.022 43.022 0 0 0 451.816 41.723 Z M 86.754 40.563 L 86.754 37.469 L 104.715 37.469 A 10.353 10.353 0 0 0 112.213 34.482 A 9.723 9.723 0 0 0 114.835 29.855 Q 115.229 28.344 115.278 26.556 A 18.768 18.768 0 0 0 115.285 26.039 A 9.782 9.782 0 0 0 113.033 19.8 A 13.328 13.328 0 0 0 112.062 18.713 A 11.665 11.665 0 0 0 109.183 16.553 A 9.537 9.537 0 0 0 104.715 15.469 L 78.16 15.469 L 78.16 71.156 L 75.066 71.156 L 75.066 12.375 L 104.715 12.375 Q 110.129 12.375 114.254 16.543 Q 118.379 20.711 118.379 26.039 A 17.55 17.55 0 0 1 117.793 30.692 A 13.019 13.019 0 0 1 114.383 36.588 Q 110.387 40.563 104.715 40.563 L 86.754 40.563 Z M 301.297 71.156 L 276.805 9.281 L 280.156 9.281 L 302.973 66.988 L 325.789 9.281 L 329.098 9.281 L 304.648 71.156 L 301.297 71.156 Z M 160.918 44.688 L 160.918 41.594 L 179.566 41.594 A 9.753 9.753 0 0 0 183.031 40.995 A 8.82 8.82 0 0 0 185.84 39.274 Q 188.418 36.953 188.418 32.742 A 6.852 6.852 0 0 0 186.907 28.464 A 9.922 9.922 0 0 0 185.732 27.199 A 8.885 8.885 0 0 0 179.566 24.75 L 153.012 24.75 L 153.012 71.156 L 149.918 71.156 L 149.918 21.656 L 179.566 21.656 A 11.861 11.861 0 0 1 187.924 25.008 Q 191.512 28.359 191.512 32.742 A 13.837 13.837 0 0 1 191.002 36.596 A 10.484 10.484 0 0 1 188.031 41.443 Q 184.551 44.688 179.566 44.688 L 160.918 44.688 Z M 84.348 21.656 L 84.348 71.156 L 81.254 71.156 L 81.254 18.563 L 104.715 18.563 A 7.141 7.141 0 0 1 109.909 20.728 A 9.055 9.055 0 0 1 109.979 20.797 A 7.692 7.692 0 0 1 111.655 23.266 A 7.169 7.169 0 0 1 112.191 26.039 A 13.538 13.538 0 0 1 111.859 29.185 Q 110.845 33.414 106.74 34.197 A 10.816 10.816 0 0 1 104.715 34.375 L 86.754 34.375 L 86.754 31.281 L 104.715 31.281 Q 106.777 31.281 107.938 30.121 A 3.224 3.224 0 0 0 108.622 29.06 Q 109.027 28.083 109.087 26.582 A 13.486 13.486 0 0 0 109.098 26.039 A 4.62 4.62 0 0 0 108.819 24.408 A 4.118 4.118 0 0 0 107.83 22.902 A 4.27 4.27 0 0 0 104.729 21.656 A 5.531 5.531 0 0 0 104.715 21.656 L 84.348 21.656 Z M 211.793 53.432 Q 209.086 47.137 209.086 40.219 Q 209.086 33.301 211.793 27.006 A 34.823 34.823 0 0 1 217.66 17.641 A 32.672 32.672 0 0 1 219.055 16.156 A 34.115 34.115 0 0 1 229.124 9.24 A 38.918 38.918 0 0 1 229.904 8.895 Q 236.199 6.188 243.117 6.188 Q 250.035 6.188 256.33 8.895 A 34.823 34.823 0 0 1 265.695 14.761 A 32.672 32.672 0 0 1 267.18 16.156 A 34.115 34.115 0 0 1 274.096 26.226 A 38.918 38.918 0 0 1 274.441 27.006 Q 277.148 33.301 277.148 40.219 Q 277.148 47.137 274.441 53.432 A 34.823 34.823 0 0 1 268.575 62.797 A 32.672 32.672 0 0 1 267.18 64.281 A 34.115 34.115 0 0 1 257.11 71.197 A 38.918 38.918 0 0 1 256.33 71.543 Q 250.035 74.25 243.117 74.25 Q 236.199 74.25 229.904 71.543 A 34.823 34.823 0 0 1 220.539 65.676 A 32.672 32.672 0 0 1 219.055 64.281 A 34.115 34.115 0 0 1 212.139 54.212 A 38.918 38.918 0 0 1 211.793 53.432 Z M 351.098 53.432 Q 348.391 47.137 348.391 40.219 Q 348.391 33.301 351.098 27.006 A 34.823 34.823 0 0 1 356.964 17.641 A 32.672 32.672 0 0 1 358.359 16.156 A 34.115 34.115 0 0 1 368.429 9.24 A 38.918 38.918 0 0 1 369.209 8.895 Q 375.504 6.188 382.422 6.188 Q 389.34 6.188 395.635 8.895 A 34.823 34.823 0 0 1 405 14.761 A 32.672 32.672 0 0 1 406.484 16.156 A 34.115 34.115 0 0 1 413.4 26.226 A 38.918 38.918 0 0 1 413.746 27.006 Q 416.453 33.301 416.453 40.219 Q 416.453 47.137 413.746 53.432 A 34.823 34.823 0 0 1 407.879 62.797 A 32.672 32.672 0 0 1 406.484 64.281 A 34.115 34.115 0 0 1 396.415 71.197 A 38.918 38.918 0 0 1 395.635 71.543 Q 389.34 74.25 382.422 74.25 Q 375.504 74.25 369.209 71.543 A 34.823 34.823 0 0 1 359.844 65.676 A 32.672 32.672 0 0 1 358.359 64.281 A 34.115 34.115 0 0 1 351.443 54.212 A 38.918 38.918 0 0 1 351.098 53.432 Z M 159.199 30.938 L 159.199 71.156 L 156.105 71.156 L 156.105 27.844 L 179.566 27.844 A 6.674 6.674 0 0 1 181.726 28.182 A 5.78 5.78 0 0 1 183.648 29.283 A 5.14 5.14 0 0 1 184.726 30.535 A 4.215 4.215 0 0 1 185.324 32.742 Q 185.324 37.311 181.699 38.255 A 8.483 8.483 0 0 1 179.566 38.5 L 160.918 38.5 L 160.918 35.406 L 179.566 35.406 A 3.835 3.835 0 0 0 180.621 35.274 Q 181.803 34.936 182.117 33.729 A 3.925 3.925 0 0 0 182.23 32.742 A 1.301 1.301 0 0 0 181.906 31.888 Q 181.723 31.669 181.436 31.475 Q 180.641 30.938 179.566 30.938 L 159.199 30.938 Z M 214.629 28.209 A 30.274 30.274 0 0 0 212.18 40.219 A 30.274 30.274 0 0 0 214.629 52.229 A 31.474 31.474 0 0 0 219.955 60.76 A 29.549 29.549 0 0 0 221.225 62.111 A 30.835 30.835 0 0 0 230.397 68.394 A 35.189 35.189 0 0 0 231.107 68.707 A 30.274 30.274 0 0 0 243.117 71.156 A 30.274 30.274 0 0 0 255.127 68.707 A 31.474 31.474 0 0 0 263.658 63.381 A 29.549 29.549 0 0 0 265.01 62.111 A 30.835 30.835 0 0 0 271.293 52.939 A 35.189 35.189 0 0 0 271.605 52.229 A 30.274 30.274 0 0 0 274.055 40.219 A 30.274 30.274 0 0 0 271.605 28.209 A 31.474 31.474 0 0 0 266.279 19.678 A 29.549 29.549 0 0 0 265.01 18.326 A 30.835 30.835 0 0 0 255.838 12.043 A 35.189 35.189 0 0 0 255.127 11.731 A 30.274 30.274 0 0 0 243.117 9.281 A 30.274 30.274 0 0 0 231.107 11.731 A 31.474 31.474 0 0 0 222.576 17.057 A 29.549 29.549 0 0 0 221.225 18.326 A 30.835 30.835 0 0 0 214.942 27.498 A 35.189 35.189 0 0 0 214.629 28.209 Z M 353.934 28.209 A 30.274 30.274 0 0 0 351.484 40.219 A 30.274 30.274 0 0 0 353.934 52.229 A 31.474 31.474 0 0 0 359.26 60.76 A 29.549 29.549 0 0 0 360.529 62.111 A 30.835 30.835 0 0 0 369.701 68.394 A 35.189 35.189 0 0 0 370.412 68.707 A 30.274 30.274 0 0 0 382.422 71.156 A 30.274 30.274 0 0 0 394.432 68.707 A 31.474 31.474 0 0 0 402.963 63.381 A 29.549 29.549 0 0 0 404.314 62.111 A 30.835 30.835 0 0 0 410.597 52.939 A 35.189 35.189 0 0 0 410.91 52.229 A 30.274 30.274 0 0 0 413.359 40.219 A 30.274 30.274 0 0 0 410.91 28.209 A 31.474 31.474 0 0 0 405.584 19.678 A 29.549 29.549 0 0 0 404.314 18.326 A 30.835 30.835 0 0 0 395.142 12.043 A 35.189 35.189 0 0 0 394.432 11.731 A 30.274 30.274 0 0 0 382.422 9.281 A 30.274 30.274 0 0 0 370.412 11.731 A 31.474 31.474 0 0 0 361.881 17.057 A 29.549 29.549 0 0 0 360.529 18.326 A 30.835 30.835 0 0 0 354.246 27.498 A 35.189 35.189 0 0 0 353.934 28.209 Z M 5.285 74.25 L 0 74.25 L 0 71.156 L 5.285 71.156 A 22.612 22.612 0 0 0 14.609 69.18 Q 19.035 67.203 22.236 63.873 A 24.664 24.664 0 0 0 26.835 57.075 A 28.462 28.462 0 0 0 27.328 55.945 A 25.065 25.065 0 0 0 29.219 46.32 L 29.219 0 L 32.313 0 L 32.313 46.32 A 28.12 28.12 0 0 1 30.186 57.149 A 28.613 28.613 0 0 1 25.736 64.606 A 26.634 26.634 0 0 1 24.428 66.065 A 27.09 27.09 0 0 1 15.791 72.037 A 25.704 25.704 0 0 1 5.285 74.25 Z M 217.486 51.047 Q 215.273 45.891 215.273 40.219 Q 215.273 34.547 217.486 29.391 A 28.526 28.526 0 0 1 222.068 21.97 A 26.55 26.55 0 0 1 223.416 20.518 A 27.778 27.778 0 0 1 231.492 14.943 A 31.816 31.816 0 0 1 232.289 14.588 Q 237.445 12.375 243.117 12.375 Q 248.789 12.375 253.945 14.588 A 28.526 28.526 0 0 1 261.366 19.17 A 26.55 26.55 0 0 1 262.818 20.518 A 27.778 27.778 0 0 1 268.393 28.594 A 31.816 31.816 0 0 1 268.748 29.391 Q 270.961 34.547 270.961 40.219 Q 270.961 45.891 268.748 51.047 A 28.526 28.526 0 0 1 264.166 58.468 A 26.55 26.55 0 0 1 262.818 59.92 A 27.778 27.778 0 0 1 254.742 65.495 A 31.816 31.816 0 0 1 253.945 65.85 Q 248.789 68.063 243.117 68.063 Q 237.445 68.063 232.289 65.85 A 28.526 28.526 0 0 1 224.868 61.268 A 26.55 26.55 0 0 1 223.416 59.92 A 27.778 27.778 0 0 1 217.841 51.844 A 31.816 31.816 0 0 1 217.486 51.047 Z M 356.791 51.047 Q 354.578 45.891 354.578 40.219 Q 354.578 34.547 356.791 29.391 A 28.526 28.526 0 0 1 361.373 21.97 A 26.55 26.55 0 0 1 362.721 20.518 A 27.778 27.778 0 0 1 370.797 14.943 A 31.816 31.816 0 0 1 371.594 14.588 Q 376.75 12.375 382.422 12.375 Q 388.094 12.375 393.25 14.588 A 28.526 28.526 0 0 1 400.671 19.17 A 26.55 26.55 0 0 1 402.123 20.518 A 27.778 27.778 0 0 1 407.698 28.594 A 31.816 31.816 0 0 1 408.053 29.391 Q 410.266 34.547 410.266 40.219 Q 410.266 45.891 408.053 51.047 A 28.526 28.526 0 0 1 403.471 58.468 A 26.55 26.55 0 0 1 402.123 59.92 A 27.778 27.778 0 0 1 394.047 65.495 A 31.816 31.816 0 0 1 393.25 65.85 Q 388.094 68.063 382.422 68.063 Q 376.75 68.063 371.594 65.85 A 28.526 28.526 0 0 1 364.173 61.268 A 26.55 26.55 0 0 1 362.721 59.92 A 27.778 27.778 0 0 1 357.146 51.844 A 31.816 31.816 0 0 1 356.791 51.047 Z M 5.285 68.063 L 0 68.063 L 0 64.969 L 5.285 64.969 A 16.619 16.619 0 0 0 17.487 59.889 A 20.756 20.756 0 0 0 17.854 59.512 Q 23.031 54.055 23.031 46.32 L 23.031 0 L 26.125 0 L 26.125 46.32 A 22.119 22.119 0 0 1 23.354 57.213 Q 20.582 62.219 15.77 65.141 Q 10.957 68.063 5.285 68.063 Z M 220.322 30.615 A 24.194 24.194 0 0 0 218.367 40.219 A 24.194 24.194 0 0 0 220.322 49.822 A 24.998 24.998 0 0 0 225.095 57.201 A 23.889 23.889 0 0 0 225.607 57.729 A 24.782 24.782 0 0 0 233.229 62.89 A 28.078 28.078 0 0 0 233.514 63.014 A 24.194 24.194 0 0 0 243.117 64.969 A 24.194 24.194 0 0 0 252.721 63.014 A 24.998 24.998 0 0 0 260.099 58.241 A 23.889 23.889 0 0 0 260.627 57.729 A 24.782 24.782 0 0 0 265.789 50.107 A 28.078 28.078 0 0 0 265.912 49.822 A 24.194 24.194 0 0 0 267.867 40.219 A 24.194 24.194 0 0 0 265.912 30.615 A 24.998 24.998 0 0 0 261.139 23.237 A 23.889 23.889 0 0 0 260.627 22.709 A 24.782 24.782 0 0 0 253.005 17.547 A 28.078 28.078 0 0 0 252.721 17.424 A 24.194 24.194 0 0 0 243.117 15.469 A 24.194 24.194 0 0 0 233.514 17.424 A 24.998 24.998 0 0 0 226.135 22.197 A 23.889 23.889 0 0 0 225.607 22.709 A 24.782 24.782 0 0 0 220.446 30.331 A 28.078 28.078 0 0 0 220.322 30.615 Z M 359.627 30.615 A 24.194 24.194 0 0 0 357.672 40.219 A 24.194 24.194 0 0 0 359.627 49.822 A 24.998 24.998 0 0 0 364.4 57.201 A 23.889 23.889 0 0 0 364.912 57.729 A 24.782 24.782 0 0 0 372.534 62.89 A 28.078 28.078 0 0 0 372.818 63.014 A 24.194 24.194 0 0 0 382.422 64.969 A 24.194 24.194 0 0 0 392.025 63.014 A 24.998 24.998 0 0 0 399.404 58.241 A 23.889 23.889 0 0 0 399.932 57.729 A 24.782 24.782 0 0 0 405.093 50.107 A 28.078 28.078 0 0 0 405.217 49.822 A 24.194 24.194 0 0 0 407.172 40.219 A 24.194 24.194 0 0 0 405.217 30.615 A 24.998 24.998 0 0 0 400.444 23.237 A 23.889 23.889 0 0 0 399.932 22.709 A 24.782 24.782 0 0 0 392.31 17.547 A 28.078 28.078 0 0 0 392.025 17.424 A 24.194 24.194 0 0 0 382.422 15.469 A 24.194 24.194 0 0 0 372.818 17.424 A 24.998 24.998 0 0 0 365.44 22.197 A 23.889 23.889 0 0 0 364.912 22.709 A 24.782 24.782 0 0 0 359.75 30.331 A 28.078 28.078 0 0 0 359.627 30.615 Z M 5.285 61.875 L 0 61.875 L 0 58.781 L 5.285 58.781 A 10.667 10.667 0 0 0 13.151 55.463 A 13.654 13.654 0 0 0 13.471 55.129 A 12.522 12.522 0 0 0 16.844 46.32 L 16.844 0 L 19.938 0 L 19.938 46.32 A 15.495 15.495 0 0 1 15.662 57.32 A 14.388 14.388 0 0 1 10.768 60.806 A 13.931 13.931 0 0 1 5.285 61.875 Z M 321.277 71.156 L 345.727 9.281 L 349.078 9.281 L 324.586 71.156 L 321.277 71.156 Z M 307.957 71.156 L 332.406 9.281 L 335.758 9.281 L 311.266 71.156 L 307.957 71.156 Z M 314.617 71.156 L 339.109 9.281 L 342.418 9.281 L 317.926 71.156 L 314.617 71.156 Z M 224.361 51.09 Q 221.461 46.106 221.461 40.219 A 21.234 21.234 0 0 1 224.361 29.348 Q 227.262 24.363 232.246 21.463 Q 237.23 18.563 243.117 18.563 A 21.234 21.234 0 0 1 253.988 21.463 Q 258.973 24.363 261.873 29.348 Q 264.773 34.332 264.773 40.219 A 21.234 21.234 0 0 1 261.873 51.09 Q 258.973 56.074 253.988 58.975 Q 249.004 61.875 243.117 61.875 A 21.234 21.234 0 0 1 232.246 58.975 Q 227.262 56.074 224.361 51.09 Z M 363.666 51.09 Q 360.766 46.106 360.766 40.219 A 21.234 21.234 0 0 1 363.666 29.348 Q 366.566 24.363 371.551 21.463 Q 376.535 18.563 382.422 18.563 A 21.234 21.234 0 0 1 393.293 21.463 Q 398.277 24.363 401.178 29.348 Q 404.078 34.332 404.078 40.219 A 21.234 21.234 0 0 1 401.178 51.09 Q 398.277 56.074 393.293 58.975 Q 388.309 61.875 382.422 61.875 A 21.234 21.234 0 0 1 371.551 58.975 Q 366.566 56.074 363.666 51.09 Z M 5.285 55.688 L 0 55.688 L 0 52.594 L 5.285 52.594 Q 7.563 52.594 9.109 50.875 A 5.86 5.86 0 0 0 10.469 48.157 A 8.553 8.553 0 0 0 10.656 46.32 L 10.656 0 L 13.75 0 L 13.75 46.32 A 11.143 11.143 0 0 1 13.314 49.508 A 8.84 8.84 0 0 1 11.301 53.045 A 8.121 8.121 0 0 1 8.24 55.164 A 8.184 8.184 0 0 1 5.285 55.688 Z M 229.99 27.113 Q 224.555 32.57 224.555 40.219 A 17.882 17.882 0 0 0 229.822 53.153 A 21.831 21.831 0 0 0 229.99 53.324 Q 235.426 58.781 243.117 58.781 A 17.828 17.828 0 0 0 256.074 53.493 A 21.631 21.631 0 0 0 256.244 53.324 Q 261.68 47.867 261.68 40.219 A 17.882 17.882 0 0 0 256.413 27.284 A 21.831 21.831 0 0 0 256.244 27.113 Q 250.809 21.656 243.117 21.656 A 17.828 17.828 0 0 0 230.161 26.944 A 21.631 21.631 0 0 0 229.99 27.113 Z M 369.295 27.113 Q 363.859 32.57 363.859 40.219 A 17.882 17.882 0 0 0 369.126 53.153 A 21.831 21.831 0 0 0 369.295 53.324 Q 374.73 58.781 382.422 58.781 A 17.828 17.828 0 0 0 395.378 53.493 A 21.631 21.631 0 0 0 395.549 53.324 Q 400.984 47.867 400.984 40.219 A 17.882 17.882 0 0 0 395.717 27.284 A 21.831 21.831 0 0 0 395.549 27.113 Q 390.113 21.656 382.422 21.656 A 17.828 17.828 0 0 0 369.465 26.944 A 21.631 21.631 0 0 0 369.295 27.113 Z M 303.359 59.641 L 283.465 9.281 L 286.773 9.281 L 305.121 55.688 L 303.359 59.641 Z M 528.473 12.375 L 482.066 12.375 L 482.066 9.281 L 528.473 9.281 L 528.473 12.375 Z M 528.473 18.563 L 482.066 18.563 L 482.066 15.469 L 528.473 15.469 L 528.473 18.563 Z M 528.473 24.75 L 482.066 24.75 L 482.066 21.656 L 528.473 21.656 L 528.473 24.75 Z M 227.65 40.418 A 14.885 14.885 0 0 0 232.182 51.154 A 18.032 18.032 0 0 0 232.324 51.295 A 14.884 14.884 0 0 0 243.117 55.688 A 17.961 17.961 0 0 0 243.317 55.686 A 14.885 14.885 0 0 0 254.053 51.154 A 18.032 18.032 0 0 0 254.193 51.012 A 14.884 14.884 0 0 0 258.586 40.219 A 17.961 17.961 0 0 0 258.585 40.019 A 14.885 14.885 0 0 0 254.053 29.283 A 18.032 18.032 0 0 0 253.911 29.143 A 14.884 14.884 0 0 0 243.117 24.75 A 17.961 17.961 0 0 0 242.918 24.751 A 14.885 14.885 0 0 0 232.182 29.283 A 18.032 18.032 0 0 0 232.041 29.425 A 14.884 14.884 0 0 0 227.648 40.219 A 17.961 17.961 0 0 0 227.65 40.418 Z M 366.954 40.418 A 14.885 14.885 0 0 0 371.486 51.154 A 18.032 18.032 0 0 0 371.628 51.295 A 14.884 14.884 0 0 0 382.422 55.688 A 17.961 17.961 0 0 0 382.621 55.686 A 14.885 14.885 0 0 0 393.357 51.154 A 18.032 18.032 0 0 0 393.498 51.012 A 14.884 14.884 0 0 0 397.891 40.219 A 17.961 17.961 0 0 0 397.89 40.019 A 14.885 14.885 0 0 0 393.357 29.283 A 18.032 18.032 0 0 0 393.215 29.143 A 14.884 14.884 0 0 0 382.422 24.75 A 17.961 17.961 0 0 0 382.222 24.751 A 14.885 14.885 0 0 0 371.486 29.283 A 18.032 18.032 0 0 0 371.346 29.425 A 14.884 14.884 0 0 0 366.953 40.219 A 17.961 17.961 0 0 0 366.954 40.418 Z M 494.441 71.156 L 494.441 26.426 L 497.535 26.426 L 497.535 71.156 L 494.441 71.156 Z M 513.004 71.156 L 513.004 26.426 L 516.098 26.426 L 516.098 71.156 L 513.004 71.156 Z M 506.816 71.156 L 506.816 26.426 L 509.91 26.426 L 509.91 71.156 L 506.816 71.156 Z M 500.629 71.156 L 500.629 26.426 L 503.723 26.426 L 503.723 71.156 L 500.629 71.156 Z M 306.797 51.477 L 290.125 9.281 L 293.477 9.281 L 308.43 47.223 L 306.797 51.477 Z M 234.373 31.475 Q 230.742 35.106 230.742 40.219 A 11.903 11.903 0 0 0 234.26 48.849 A 14.484 14.484 0 0 0 234.373 48.963 Q 238.004 52.594 243.117 52.594 A 11.903 11.903 0 0 0 251.748 49.076 A 14.484 14.484 0 0 0 251.861 48.963 Q 255.492 45.332 255.492 40.219 A 11.903 11.903 0 0 0 251.974 31.589 A 14.484 14.484 0 0 0 251.861 31.475 Q 248.23 27.844 243.117 27.844 A 11.903 11.903 0 0 0 234.487 31.362 A 14.484 14.484 0 0 0 234.373 31.475 Z M 373.678 31.475 Q 370.047 35.106 370.047 40.219 A 11.903 11.903 0 0 0 373.565 48.849 A 14.484 14.484 0 0 0 373.678 48.963 Q 377.309 52.594 382.422 52.594 A 11.903 11.903 0 0 0 391.052 49.076 A 14.484 14.484 0 0 0 391.166 48.963 Q 394.797 45.332 394.797 40.219 A 11.903 11.903 0 0 0 391.279 31.589 A 14.484 14.484 0 0 0 391.166 31.475 Q 387.535 27.844 382.422 27.844 A 11.903 11.903 0 0 0 373.792 31.362 A 14.484 14.484 0 0 0 373.678 31.475 Z M 310.063 42.969 L 296.785 9.281 L 300.094 9.281 L 311.695 38.629 L 310.063 42.969 Z M 55.172 58.781 L 39.703 58.781 L 39.703 55.688 L 55.172 55.688 L 55.172 58.781 Z M 55.172 64.969 L 39.703 64.969 L 39.703 61.875 L 55.172 61.875 L 55.172 64.969 Z M 55.172 71.156 L 39.703 71.156 L 39.703 68.063 L 55.172 68.063 L 55.172 71.156 Z" vector-effect="non-scaling-stroke"/></g></svg>