<svg width="244.121" height="84.128" xmlns="http://www.w3.org/2000/svg">

 <g>
  <title>background</title>
  <rect fill="none" id="canvas_background" height="402" width="582" y="-1" x="-1"/>
 </g>
 <g>
  <title>Layer 1</title>
  <g fill="none" stroke-width="0.25mm" stroke="#000" font-size="9pt" fill-rule="evenodd" stroke-linecap="round" id="svgGroup">
   <path stroke="#0f0f00" fill="#ffffff" id="svg_1" d="m42.601,24.288l1.584,-13.288q-5.28,-0.528 -9.856,-0.528q-12.232,0 -18.04,2.376a12.132,12.132 0 0 0 -2.742,1.523q-3.066,2.321 -3.066,6.221a9.226,9.226 0 0 0 0.386,2.572q0.322,1.11 0.912,2.288a17.831,17.831 0 0 0 0.462,0.86a3.634,3.634 0 0 1 0.484,1.296a3.45,3.45 0 0 1 0.044,0.552a3.572,3.572 0 0 1 -0.777,2.206q-0.381,0.501 -0.949,0.963a7.489,7.489 0 0 1 -0.166,0.131q-1.892,1.452 -4.092,1.452q-2.816,0 -4.312,-2.376q-2.464,-4.048 -2.464,-9.416q0,-19.789 32.448,-21.036a117.555,117.555 0 0 1 4.512,-0.084a93.461,93.461 0 0 1 9.863,0.496a68.111,68.111 0 0 1 9.321,1.616a11.182,11.182 0 0 1 2.015,0.685q1.043,0.481 1.724,1.141a4.141,4.141 0 0 1 1.277,3.102q0,2.64 -1.1,3.96a3.362,3.362 0 0 1 -1.497,1.011q-0.874,0.309 -2.067,0.309q-0.176,1.848 -0.792,6.424q-0.831,5.814 -0.956,6.768a16.548,16.548 0 0 0 -0.012,0.096a213.633,213.633 0 0 1 -3.534,19.828q-7.671,33.009 -23.577,37.729a19.361,19.361 0 0 1 -5.537,0.787a20.759,20.759 0 0 1 -4.642,-0.488q-3.401,-0.78 -5.836,-2.805a12.846,12.846 0 0 1 -0.918,-0.843a14.005,14.005 0 0 1 -4.076,-9.611a18.495,18.495 0 0 1 -0.016,-0.773a24.699,24.699 0 0 1 6.154,-16.305a35.167,35.167 0 0 1 3.35,-3.451q9.504,-8.58 24.992,-14.212a296.769,296.769 0 0 0 0.762,-5.214q0.328,-2.392 0.576,-4.55a175.234,175.234 0 0 0 0.158,-1.412zm78.848,26.4l-3.784,21.208a23.965,23.965 0 0 1 -1.386,4.915q-2.908,7.028 -9.992,7.306a15.062,15.062 0 0 1 -0.59,0.011q-5.368,0 -9.9,-3.168q-4.273,-2.987 -6.943,-8.947a32.767,32.767 0 0 1 -0.317,-0.733q-2.728,-6.512 -2.728,-16.016a92.232,92.232 0 0 1 0.951,-13.621q1.39,-9.301 4.813,-16.695q5.764,-12.452 15.488,-18.656q9.724,-6.204 21.428,-6.204a39.311,39.311 0 0 1 6.307,0.48q3.499,0.569 6.414,1.814a22.97,22.97 0 0 1 1.315,0.61a22.624,22.624 0 0 1 5.262,3.607a19.102,19.102 0 0 1 3.45,4.269q2.948,4.972 2.948,11.22q0,7.48 -3.872,13.728a27.299,27.299 0 0 1 -7.385,7.8a34.71,34.71 0 0 1 -3.879,2.408a37.944,37.944 0 0 1 -9.207,3.425a51.815,51.815 0 0 1 -8.393,1.239zm-15.312,16.368l2.904,-16.632a994.511,994.511 0 0 0 -0.691,-0.106q-2.694,-0.412 -2.301,-0.334q-2.64,-0.44 -3.432,-1.628q-0.723,-1.083 -0.786,-2.716a8.229,8.229 0 0 1 -0.006,-0.32q0,-1.936 1.1,-3.08a3.623,3.623 0 0 1 1.894,-1.029a5.39,5.39 0 0 1 1.142,-0.115q0.719,0 1.144,0.059a2.977,2.977 0 0 1 0.176,0.029q2.112,0.352 3.256,0.44q1.144,-6.864 3.256,-18.392a8.983,8.983 0 0 1 0.478,-1.74q0.656,-1.66 1.942,-2.528a7.463,7.463 0 0 1 3.434,-1.223a9.468,9.468 0 0 1 1.01,-0.053a12.12,12.12 0 0 1 1.466,0.083q1.553,0.19 2.457,0.818a3.141,3.141 0 0 1 0.257,0.199q1.276,1.1 1.276,3.476a18.792,18.792 0 0 1 -0.018,0.829q-0.018,0.427 -0.058,0.792a7.623,7.623 0 0 1 -0.1,0.667l-2.904,17.072a29.81,29.81 0 0 0 7.465,-1.85q10.575,-4.295 10.575,-16.894q0,-5.808 -3.828,-9.46a11.707,11.707 0 0 0 -4.15,-2.496q-1.79,-0.65 -3.998,-0.934a28.932,28.932 0 0 0 -3.688,-0.222q-9.064,0 -15.796,5.72a32.239,32.239 0 0 0 -6.89,8.327a44.698,44.698 0 0 0 -3.494,7.557a60.452,60.452 0 0 0 -2.953,12.34a80.688,80.688 0 0 0 -0.699,10.848q0,5.275 1.028,9.398a28.011,28.011 0 0 0 0.072,0.282a29.027,29.027 0 0 0 0.826,2.674q0.458,1.248 0.991,2.266a12.53,12.53 0 0 0 0.999,1.616a10.215,10.215 0 0 0 0.823,0.993q0.962,1.01 1.881,1.258a2.274,2.274 0 0 0 0.596,0.081q2.2,0 3.344,-6.072zm56.936,7.92q-3.344,0 -4.708,-3.52a14.792,14.792 0 0 1 -0.66,-2.314q-0.525,-2.524 -0.659,-6.264a75.432,75.432 0 0 1 -0.045,-2.686a72.111,72.111 0 0 1 2.767,-20.12a67.709,67.709 0 0 1 0.489,-1.616a8.521,8.521 0 0 1 0.736,-1.722a5.855,5.855 0 0 1 1.86,-2.018a6.338,6.338 0 0 1 1.705,-0.769q0.8,-0.235 1.761,-0.339a14.977,14.977 0 0 1 1.594,-0.08q1.367,0 2.097,0.266a1.947,1.947 0 0 1 0.367,0.174a1.356,1.356 0 0 1 0.546,0.685q0.096,0.247 0.134,0.559a3.606,3.606 0 0 1 0.024,0.428q0,1.147 -0.876,4.63a115.54,115.54 0 0 1 -0.444,1.706q-0.88,3.52 -1.408,6.16q-0.528,2.64 -0.88,6.512q2.308,-6.016 5.061,-10.252a34.57,34.57 0 0 1 1.451,-2.068q2.553,-3.363 5.041,-5.36a16.703,16.703 0 0 1 2.043,-1.416a18.247,18.247 0 0 1 2.322,-1.152q1.311,-0.531 2.531,-0.739a9.097,9.097 0 0 1 1.527,-0.133q5.72,0 5.72,5.72a6.672,6.672 0 0 1 -0.028,0.544q-0.121,1.425 -0.764,5a119.479,119.479 0 0 0 -0.24,1.228q-0.345,1.824 -0.433,2.688a4.953,4.953 0 0 0 -0.031,0.484q0,3.018 2.111,3.079a3.049,3.049 0 0 0 0.089,0.001q1.943,0 4.763,-2.409a27.534,27.534 0 0 0 1.573,-1.463a4.816,4.816 0 0 1 0.76,-0.627q0.788,-0.517 1.616,-0.517a1.997,1.997 0 0 1 1.562,0.694a2.706,2.706 0 0 1 0.242,0.318a3.742,3.742 0 0 1 0.472,1.089q0.129,0.484 0.169,1.056a7.676,7.676 0 0 1 0.019,0.539a9.717,9.717 0 0 1 -0.208,2.072q-0.397,1.82 -1.552,3.032a23.75,23.75 0 0 1 -5.508,4.214a26.597,26.597 0 0 1 -0.256,0.142q-3.3,1.804 -6.996,1.804a14.656,14.656 0 0 1 -2.696,-0.232q-1.533,-0.287 -2.73,-0.929a7.239,7.239 0 0 1 -1.658,-1.215q-2.42,-2.376 -2.42,-6.424q0,-1.32 0.264,-2.64q0.176,-1.76 0.176,-2.376a3.032,3.032 0 0 0 -0.037,-0.496q-0.147,-0.881 -0.879,-0.911a1.278,1.278 0 0 0 -0.052,-0.001a1.726,1.726 0 0 0 -0.797,0.227q-1.013,0.534 -2.381,2.322a23.024,23.024 0 0 0 -0.298,0.399a29.035,29.035 0 0 0 -1.611,2.477q-1.337,2.286 -2.657,5.311q-2.112,4.84 -3.432,10.208q-0.745,3.182 -1.672,4.775a5.163,5.163 0 0 1 -0.572,0.813q-1.276,1.452 -4.004,1.452zm80.131,-26.764a1.808,1.808 0 0 0 -1.459,-0.692q-0.33,0 -0.729,0.069a6.947,6.947 0 0 0 -0.503,0.107q-5.72,1.496 -9.856,1.76a24.338,24.338 0 0 0 -0.305,-2.077a19.237,19.237 0 0 0 -4.491,-9.319a13.183,13.183 0 0 0 -5.643,-3.813a15.676,15.676 0 0 0 -5.137,-0.807q-5.456,0 -9.944,2.948a19.021,19.021 0 0 0 -3.211,2.653a21.183,21.183 0 0 0 -3.829,5.531q-2.552,5.236 -2.552,11.924a24.882,24.882 0 0 0 0.003,0.384a21.607,21.607 0 0 0 1.933,8.768q1.936,4.224 5.676,6.776a14.141,14.141 0 0 0 4.551,2.028a18.221,18.221 0 0 0 4.469,0.524a15.886,15.886 0 0 0 5.765,-1.051a17.443,17.443 0 0 0 5.411,-3.393a20.168,20.168 0 0 0 4.317,-5.553a25.091,25.091 0 0 0 2.283,-6.283q6.336,-0.264 11.616,-2.112a3.171,3.171 0 0 0 2.005,-1.841q0.288,-0.643 0.425,-1.491a10.654,10.654 0 0 0 0.122,-1.684a9.296,9.296 0 0 0 -0.014,-0.514q-0.036,-0.639 -0.161,-1.187a4.777,4.777 0 0 0 -0.441,-1.203a2.78,2.78 0 0 0 -0.301,-0.452zm-219.963,26.324a6.616,6.616 0 0 0 3.436,-1.033q2.594,-1.561 5.188,-5.479a28.875,28.875 0 0 0 2.341,-4.433q2.097,-4.836 3.906,-12.336a157.367,157.367 0 0 0 1.321,-6.023q-17.372,7.618 -20.689,18.001a16.51,16.51 0 0 0 -0.783,5.055a10.209,10.209 0 0 0 0.148,1.797q0.308,1.723 1.26,2.823a4.617,4.617 0 0 0 2.98,1.57a6.638,6.638 0 0 0 0.892,0.058zm191.928,-31.768l-0.44,0a6.488,6.488 0 0 0 -4.856,2.152a10.027,10.027 0 0 0 -0.996,1.236a11.692,11.692 0 0 0 -1.532,3.281q-0.45,1.495 -0.647,3.291a27.336,27.336 0 0 0 -0.153,2.976q0,4.84 1.892,7.392a7.784,7.784 0 0 0 1.247,1.346a4.866,4.866 0 0 0 3.197,1.206a6.238,6.238 0 0 0 4.422,-1.815a8.559,8.559 0 0 0 0.462,-0.473q1.637,-1.812 2.42,-4.893a20.105,20.105 0 0 0 0.352,-1.707q-2.728,-1.848 -4.18,-4.84q-1.452,-2.992 -1.452,-6.336q0,-1.408 0.264,-2.816zm-147.964,32.002a11.343,11.343 0 0 0 2.236,0.206a11.011,11.011 0 0 0 2.013,-0.175a7.56,7.56 0 0 0 4.235,-2.245a8.074,8.074 0 0 0 1.973,-3.687a11.599,11.599 0 0 0 0.315,-2.781a12.672,12.672 0 0 0 -0.027,-0.839q-0.078,-1.172 -0.38,-2.14a6.001,6.001 0 0 0 -1.573,-2.609q-1.98,-1.892 -5.852,-1.892a11.131,11.131 0 0 0 -2.517,0.268a7.337,7.337 0 0 0 -3.775,2.108q-2.244,2.376 -2.244,6.336a10.19,10.19 0 0 0 0.157,1.832a7.184,7.184 0 0 0 1.823,3.712a5.916,5.916 0 0 0 1.254,1.016q1.024,0.621 2.362,0.89z"/>
  </g>
 </g>
</svg>